mtllib material.mtl
usemtl mtl_GRIPPER_RIGH
v -0.05990000 -0.01200000 0.01820000
v -0.05990000 -0.01200000 0.02200000
v -0.06380000 -0.01200000 0.01820000
v -0.06380000 -0.01200000 0.02200000
v -0.06380000 0.08244173 0.00672500
v -0.07480000 0.08244173 0.00672500
v -0.06380000 0.08299630 0.00672500
v -0.07480000 0.08299630 0.00672500
v -0.06380000 0.07961430 0.00672500
v -0.07480000 0.07961430 0.00672500
v -0.06380000 0.08016887 0.00672500
v -0.07480000 0.08016887 0.00672500
v -0.06380000 0.07678686 0.00672500
v -0.07480000 0.07678686 0.00672500
v -0.06380000 0.07734144 0.00672500
v -0.07480000 0.07734144 0.00672500
v -0.06380000 0.07395943 0.00672500
v -0.07480000 0.07395943 0.00672500
v -0.06380000 0.07451400 0.00672500
v -0.07480000 0.07451400 0.00672500
v -0.06380000 0.07113200 0.00672500
v -0.07480000 0.07113200 0.00672500
v -0.06380000 0.07168657 0.00672500
v -0.07480000 0.07168657 0.00672500
v -0.06380000 0.06830456 0.00672500
v -0.07480000 0.06830456 0.00672500
v -0.06380000 0.06885914 0.00672500
v -0.07480000 0.06885914 0.00672500
v -0.06380000 0.06547713 0.00672500
v -0.07480000 0.06547713 0.00672500
v -0.06380000 0.06603170 0.00672500
v -0.07480000 0.06603170 0.00672500
v -0.06380000 0.06264970 0.00672500
v -0.07480000 0.06264970 0.00672500
v -0.06380000 0.06320427 0.00672500
v -0.07480000 0.06320427 0.00672500
v -0.06380000 0.05982227 0.00672500
v -0.07480000 0.05982227 0.00672500
v -0.06380000 0.06037684 0.00672500
v -0.07480000 0.06037684 0.00672500
v -0.06380000 0.05699484 0.00672500
v -0.07480000 0.05699484 0.00672500
v -0.06380000 0.05754941 0.00672500
v -0.07480000 0.05754941 0.00672500
v -0.06380000 0.05416740 0.00672500
v -0.07480000 0.05416740 0.00672500
v -0.06380000 0.05472197 0.00672500
v -0.07480000 0.05472197 0.00672500
v -0.06380000 0.05133997 0.00672500
v -0.07480000 0.05133997 0.00672500
v -0.06380000 0.05189453 0.00672500
v -0.07480000 0.05189453 0.00672500
v -0.06380000 0.04851253 0.00672500
v -0.07480000 0.04851253 0.00672500
v -0.06380000 0.04906711 0.00672500
v -0.07480000 0.04906711 0.00672500
v -0.06380000 0.04568510 0.00672500
v -0.07480000 0.04568510 0.00672500
v -0.06380000 0.04623967 0.00672500
v -0.07480000 0.04623967 0.00672500
v -0.06380000 0.04285767 0.00672500
v -0.07480000 0.04285767 0.00672500
v -0.06380000 0.04341224 0.00672500
v -0.07480000 0.04341224 0.00672500
v -0.06380000 0.04003023 0.00672500
v -0.07480000 0.04003023 0.00672500
v -0.06380000 0.04058481 0.00672500
v -0.07480000 0.04058481 0.00672500
v -0.06380000 0.03720280 0.00672500
v -0.07480000 0.03720280 0.00672500
v -0.06380000 0.03775737 0.00672500
v -0.07480000 0.03775737 0.00672500
v -0.06380000 0.03437537 0.00672500
v -0.07480000 0.03437537 0.00672500
v -0.06380000 0.03492994 0.00672500
v -0.07480000 0.03492994 0.00672500
v -0.06380000 0.03154793 0.00672500
v -0.07480000 0.03154793 0.00672500
v -0.06380000 0.03210250 0.00672500
v -0.07480000 0.03210250 0.00672500
v -0.06380000 0.02872050 0.00672500
v -0.07480000 0.02872050 0.00672500
v -0.06380000 0.02927507 0.00672500
v -0.07480000 0.02927507 0.00672500
v -0.06380000 0.02589306 0.00672500
v -0.07480000 0.02589306 0.00672500
v -0.06380000 0.02644764 0.00672500
v -0.07480000 0.02644764 0.00672500
v -0.06380000 0.02306563 0.00672500
v -0.07480000 0.02306563 0.00672500
v -0.06380000 0.02362020 0.00672500
v -0.07480000 0.02362020 0.00672500
v -0.06380000 0.02023820 0.00672500
v -0.07480000 0.02023820 0.00672500
v -0.06380000 0.02079277 0.00672500
v -0.07480000 0.02079277 0.00672500
v -0.06380000 0.01741076 0.00672500
v -0.07480000 0.01741076 0.00672500
v -0.06380000 0.01796534 0.00672500
v -0.07480000 0.01796534 0.00672500
v -0.06380000 0.01458333 0.00672500
v -0.07480000 0.01458333 0.00672500
v -0.06380000 0.01513790 0.00672500
v -0.07480000 0.01513790 0.00672500
v -0.06380000 0.01175590 0.00672500
v -0.07480000 0.01175590 0.00672500
v -0.06380000 0.01231047 0.00672500
v -0.07480000 0.01231047 0.00672500
v -0.06380000 0.00892846 0.00672500
v -0.07480000 0.00892846 0.00672500
v -0.06380000 0.00948304 0.00672500
v -0.07480000 0.00948304 0.00672500
v -0.06380000 0.00610103 0.00672500
v -0.07480000 0.00610103 0.00672500
v -0.06380000 0.00665560 0.00672500
v -0.07480000 0.00665560 0.00672500
v -0.06380000 0.00327360 0.00672500
v -0.07480000 0.00327360 0.00672500
v -0.06380000 0.00382817 0.00672500
v -0.07480000 0.00382817 0.00672500
v -0.06380000 0.00044617 0.00672500
v -0.07480000 0.00044617 0.00672500
v -0.06380000 0.00100074 0.00672500
v -0.07480000 0.00100074 0.00672500
v -0.06380000 -0.00238127 0.00672500
v -0.07480000 -0.00238127 0.00672500
v -0.06380000 -0.00182670 0.00672500
v -0.07480000 -0.00182670 0.00672500
v -0.06380000 -0.00520870 0.00672500
v -0.07480000 -0.00520870 0.00672500
v -0.06380000 -0.00465413 0.00672500
v -0.07480000 -0.00465413 0.00672500
v -0.06380000 -0.00803613 0.00672500
v -0.07480000 -0.00803613 0.00672500
v -0.06380000 -0.00748156 0.00672500
v -0.07480000 -0.00748156 0.00672500
v -0.06380000 -0.01086357 0.00672500
v -0.07480000 -0.01086357 0.00672500
v -0.06380000 -0.01030900 0.00672500
v -0.07480000 -0.01030900 0.00672500
v -0.07870000 -0.01200000 0.02200000
v -0.07870000 -0.01200000 0.01820000
v -0.07480000 -0.01200000 0.02200000
v -0.07480000 -0.01200000 0.01820000
v -0.06380000 0.08526917 0.00672500
v -0.07480000 0.08526917 0.00672500
v -0.06380000 0.08582374 0.00672500
v -0.07480000 0.08582374 0.00672500
v -0.07480000 0.08800000 0.01820000
v -0.07870000 0.08800000 0.01820000
v -0.07870000 0.08800000 0.02200000
v -0.05990000 0.08800000 0.02200000
v -0.05990000 0.08800000 0.01820000
v -0.06380000 0.08800000 0.01820000
v -0.06380000 0.08800000 0.00699041
v -0.07480000 0.08800000 0.00699041
v -0.06380000 -0.02200000 0.02200000
v -0.06380000 0.08735956 0.00875000
v -0.06380000 -0.02200000 0.01270000
v -0.06380000 -0.01200000 0.01270000
v -0.06380000 0.08090591 0.00875000
v -0.06380000 0.08170469 0.00875000
v -0.06380000 0.08656078 0.00875000
v -0.06380000 0.05263158 0.00875000
v -0.06380000 0.05343036 0.00875000
v -0.06380000 0.08373334 0.00875000
v -0.06380000 0.08453213 0.00875000
v -0.06380000 0.05060293 0.00875000
v -0.06380000 0.05828645 0.00875000
v -0.06380000 0.05908523 0.00875000
v -0.06380000 -0.01200000 0.00875000
v -0.06380000 -0.01160061 0.00875000
v -0.06380000 0.00536399 0.00875000
v -0.06380000 0.00739264 0.00875000
v -0.06380000 0.05625780 0.00875000
v -0.06380000 0.06959617 0.00875000
v -0.06380000 0.07039496 0.00875000
v -0.06380000 0.05545901 0.00875000
v -0.06380000 0.03363833 0.00875000
v -0.06380000 0.03566698 0.00875000
v -0.06380000 0.06191266 0.00875000
v -0.06380000 0.07887726 0.00875000
v -0.06380000 -0.00311831 0.00875000
v -0.06380000 0.06394131 0.00875000
v -0.06380000 0.06474009 0.00875000
v -0.06380000 0.03081089 0.00875000
v -0.06380000 0.06111388 0.00875000
v -0.06380000 0.07322239 0.00875000
v -0.06380000 0.03929320 0.00875000
v -0.06380000 0.06756753 0.00875000
v -0.06380000 0.07525104 0.00875000
v -0.06380000 0.07604983 0.00875000
v -0.06380000 -0.00957196 0.00875000
v -0.06380000 -0.00877318 0.00875000
v -0.06380000 -0.00108966 0.00875000
v -0.06380000 -0.00029087 0.00875000
v -0.06380000 0.04132184 0.00875000
v -0.06380000 0.04212063 0.00875000
v -0.06380000 0.06676874 0.00875000
v -0.06380000 0.07242361 0.00875000
v -0.06380000 0.01101886 0.00875000
v -0.06380000 0.01022008 0.00875000
v -0.06380000 0.00819143 0.00875000
v -0.06380000 0.01384629 0.00875000
v -0.06380000 0.03283954 0.00875000
v -0.06380000 0.03646576 0.00875000
v -0.06380000 0.03849441 0.00875000
v -0.06380000 0.07807847 0.00875000
v -0.06380000 -0.00674453 0.00875000
v -0.06380000 -0.00594574 0.00875000
v -0.06380000 0.00173778 0.00875000
v -0.06380000 0.00253656 0.00875000
v -0.06380000 0.00456521 0.00875000
v -0.06380000 0.04494806 0.00875000
v -0.06380000 -0.00391709 0.00875000
v -0.06380000 0.01587494 0.00875000
v -0.06380000 0.01667373 0.00875000
v -0.06380000 0.04697671 0.00875000
v -0.06380000 0.04777550 0.00875000
v -0.06380000 0.04414928 0.00875000
v -0.06380000 0.01304751 0.00875000
v -0.06380000 0.01950116 0.00875000
v -0.06380000 0.04980414 0.00875000
v -0.06380000 0.02152981 0.00875000
v -0.06380000 0.02232859 0.00875000
v -0.06380000 0.01870237 0.00875000
v -0.06380000 0.02515603 0.00875000
v -0.06380000 0.02718467 0.00875000
v -0.06380000 0.02798346 0.00875000
v -0.06380000 0.02435724 0.00875000
v -0.06380000 0.03001211 0.00875000
v -0.07480000 -0.01200000 0.00875000
v -0.07480000 -0.01200000 -0.00200000
v -0.07480000 -0.01900000 -0.00200000
v -0.07480000 -0.01160061 0.00875000
v -0.07480000 -0.01900000 0.02200000
v -0.07480000 0.08735956 0.00875000
v -0.07480000 0.08656078 0.00875000
v -0.07480000 0.08453213 0.00875000
v -0.07480000 0.08373334 0.00875000
v -0.07480000 0.08090591 0.00875000
v -0.07480000 0.07887726 0.00875000
v -0.07480000 0.05263158 0.00875000
v -0.07480000 0.07525104 0.00875000
v -0.07480000 0.07604983 0.00875000
v -0.07480000 0.07807847 0.00875000
v -0.07480000 0.08170469 0.00875000
v -0.07480000 0.06676874 0.00875000
v -0.07480000 0.06474009 0.00875000
v -0.07480000 0.06394131 0.00875000
v -0.07480000 0.07322239 0.00875000
v -0.07480000 0.07242361 0.00875000
v -0.07480000 0.07039496 0.00875000
v -0.07480000 0.06959617 0.00875000
v -0.07480000 0.03849441 0.00875000
v -0.07480000 0.06756753 0.00875000
v -0.07480000 0.04980414 0.00875000
v -0.07480000 0.00739264 0.00875000
v -0.07480000 0.04777550 0.00875000
v -0.07480000 0.04697671 0.00875000
v -0.07480000 0.03283954 0.00875000
v -0.07480000 0.03081089 0.00875000
v -0.07480000 0.00536399 0.00875000
v -0.07480000 0.00456521 0.00875000
v -0.07480000 0.06191266 0.00875000
v -0.07480000 0.06111388 0.00875000
v -0.07480000 0.05908523 0.00875000
v -0.07480000 0.05828645 0.00875000
v -0.07480000 0.03566698 0.00875000
v -0.07480000 0.05625780 0.00875000
v -0.07480000 0.05545901 0.00875000
v -0.07480000 0.05060293 0.00875000
v -0.07480000 0.00173778 0.00875000
v -0.07480000 0.05343036 0.00875000
v -0.07480000 0.04414928 0.00875000
v -0.07480000 0.02718467 0.00875000
v -0.07480000 -0.00029087 0.00875000
v -0.07480000 -0.00108966 0.00875000
v -0.07480000 0.04212063 0.00875000
v -0.07480000 0.04132184 0.00875000
v -0.07480000 0.03363833 0.00875000
v -0.07480000 0.03001211 0.00875000
v -0.07480000 0.02515603 0.00875000
v -0.07480000 0.02435724 0.00875000
v -0.07480000 0.00253656 0.00875000
v -0.07480000 0.04494806 0.00875000
v -0.07480000 0.02798346 0.00875000
v -0.07480000 -0.00391709 0.00875000
v -0.07480000 0.03646576 0.00875000
v -0.07480000 0.02152981 0.00875000
v -0.07480000 -0.00594574 0.00875000
v -0.07480000 -0.00674453 0.00875000
v -0.07480000 0.03929320 0.00875000
v -0.07480000 0.01950116 0.00875000
v -0.07480000 0.01870237 0.00875000
v -0.07480000 -0.00311831 0.00875000
v -0.07480000 0.02232859 0.00875000
v -0.07480000 -0.00877318 0.00875000
v -0.07480000 -0.00957196 0.00875000
v -0.07480000 0.01587494 0.00875000
v -0.07480000 0.01384629 0.00875000
v -0.07480000 0.01304751 0.00875000
v -0.07480000 0.01667373 0.00875000
v -0.07480000 0.01101886 0.00875000
v -0.07480000 0.01022008 0.00875000
v -0.07480000 0.00819143 0.00875000
v -0.06700000 -0.02200000 0.02200000
v -0.05480000 -0.01200000 -0.00200000
v -0.04313805 -0.01200000 -0.01597500
v -0.04285000 -0.01200000 -0.01490000
v -0.03500000 -0.01200000 -0.02490000
v -0.04313805 -0.01200000 -0.01382500
v -0.04587500 -0.01200000 0.01303805
v -0.04480000 -0.01200000 0.01275000
v -0.04392500 -0.01200000 -0.01303804
v -0.04500000 -0.01200000 -0.01275000
v -0.04372500 -0.01200000 0.01303805
v -0.04293805 -0.01200000 0.01382500
v -0.03500000 -0.01200000 0.02490000
v -0.04265000 -0.01200000 0.01490000
v -0.04293805 -0.01200000 0.01597500
v -0.05480000 -0.01200000 0.01270000
v -0.04666195 -0.01200000 0.01382500
v -0.04607500 -0.01200000 -0.01303804
v -0.04686195 -0.01200000 -0.01382500
v -0.05480000 -0.01200000 -0.02490000
v -0.04715000 -0.01200000 -0.01490000
v -0.04686195 -0.01200000 -0.01597500
v -0.04372500 -0.01200000 0.01676195
v -0.04480000 -0.01200000 0.01705000
v -0.05480000 -0.01200000 0.02490000
v -0.04587500 -0.01200000 0.01676195
v -0.04666195 -0.01200000 0.01597500
v -0.04695000 -0.01200000 0.01490000
v -0.04607500 -0.01200000 -0.01676195
v -0.04500000 -0.01200000 -0.01705000
v -0.04392500 -0.01200000 -0.01676195
v -0.06700000 -0.02200000 -0.00200000
v -0.05480000 -0.02200000 -0.00200000
v -0.05480000 -0.02200000 -0.02490000
v -0.04700000 -0.02200000 -0.02490000
v -0.03500000 -0.01700000 -0.02490000
v -0.03500000 -0.01700000 0.02490000
v -0.04700000 -0.02200000 0.02490000
v -0.05480000 -0.02200000 0.02490000
v -0.05480000 -0.02200000 0.01270000
v -0.04700000 -0.02200000 0.01824066
v -0.04826410 -0.02200000 0.01690000
v -0.04880000 -0.02200000 0.01490000
v -0.04826410 -0.02200000 0.01290000
v -0.04700000 -0.02200000 0.01155934
v -0.04700000 -0.02200000 -0.01836410
v -0.04846410 -0.02200000 -0.01690000
v -0.04900000 -0.02200000 -0.01490000
v -0.04846410 -0.02200000 -0.01290000
v -0.04700000 -0.02200000 -0.01143590
v -0.04695000 -0.01500000 0.01490000
v -0.04666195 -0.01500000 0.01382500
v -0.04587500 -0.01500000 0.01303805
v -0.04480000 -0.01500000 0.01275000
v -0.04372500 -0.01500000 0.01303805
v -0.04293805 -0.01500000 0.01382500
v -0.04265000 -0.01500000 0.01490000
v -0.04293805 -0.01500000 0.01597500
v -0.04372500 -0.01500000 0.01676195
v -0.04480000 -0.01500000 0.01705000
v -0.04587500 -0.01500000 0.01676195
v -0.04666195 -0.01500000 0.01597500
v -0.04680000 -0.01500000 0.01143590
v -0.04480000 -0.01500000 0.01090000
v -0.04280000 -0.01500000 0.01143590
v -0.04133590 -0.01500000 0.01290000
v -0.04080000 -0.01500000 0.01490000
v -0.04133590 -0.01500000 0.01690000
v -0.04280000 -0.01500000 0.01836410
v -0.04480000 -0.01500000 0.01890000
v -0.04680000 -0.01500000 0.01836410
v -0.04826410 -0.01500000 0.01690000
v -0.04880000 -0.01500000 0.01490000
v -0.04826410 -0.01500000 0.01290000
v -0.04480000 -0.02108333 0.01090000
v -0.04280000 -0.02025000 0.01143590
v -0.04133590 -0.01963996 0.01290000
v -0.04093629 -0.01947346 0.01386472
v -0.04080000 -0.01941667 0.01490000
v -0.04093629 -0.01947346 0.01593528
v -0.04680000 -0.02191667 0.01143590
v -0.04133590 -0.01963996 0.01690000
v -0.04280000 -0.02025000 0.01836410
v -0.04480000 -0.02108333 0.01890000
v -0.04680000 -0.02191667 0.01836410
v -0.04715000 -0.01500000 -0.01490000
v -0.04686195 -0.01500000 -0.01597500
v -0.04607500 -0.01500000 -0.01676195
v -0.04500000 -0.01500000 -0.01705000
v -0.04392500 -0.01500000 -0.01676195
v -0.04313805 -0.01500000 -0.01597500
v -0.04285000 -0.01500000 -0.01490000
v -0.04313805 -0.01500000 -0.01382500
v -0.04392500 -0.01500000 -0.01303804
v -0.04500000 -0.01500000 -0.01275000
v -0.04607500 -0.01500000 -0.01303804
v -0.04686195 -0.01500000 -0.01382500
v -0.04153590 -0.01500000 -0.01290000
v -0.04300000 -0.01500000 -0.01143590
v -0.04500000 -0.01500000 -0.01090000
v -0.04700000 -0.01500000 -0.01143590
v -0.04846410 -0.01500000 -0.01290000
v -0.04900000 -0.01500000 -0.01490000
v -0.04846410 -0.01500000 -0.01690000
v -0.04700000 -0.01500000 -0.01836410
v -0.04500000 -0.01500000 -0.01890000
v -0.04300000 -0.01500000 -0.01836410
v -0.04153590 -0.01500000 -0.01690000
v -0.04100000 -0.01500000 -0.01490000
v -0.04500000 -0.02116667 -0.01090000
v -0.04300000 -0.02033333 -0.01143590
v -0.04153590 -0.01972329 -0.01290000
v -0.04500000 -0.02116667 -0.01890000
v -0.04300000 -0.02033333 -0.01836410
v -0.04153590 -0.01972329 -0.01690000
v -0.04113629 -0.01955679 -0.01593528
v -0.04100000 -0.01950000 -0.01490000
v -0.04113629 -0.01955679 -0.01386472
v -0.05500000 -0.01700000 -0.02500000
v -0.05500000 -0.01700000 -0.04000000
v -0.03500000 -0.01700000 -0.02500000
v -0.00500000 -0.01700000 -0.04000000
v -0.03500000 -0.01700000 0.02500000
v -0.00500000 -0.01700000 0.04000000
v -0.05500000 -0.01700000 0.02500000
v -0.05500000 -0.01700000 0.04000000
v -0.05500000 -0.01200000 0.02500000
v -0.05500000 0.00000000 0.04000000
v -0.05500000 -0.01200000 -0.02500000
v -0.05500000 0.00000000 -0.04000000
v 0.05500000 0.00000000 -0.04000000
v 0.05500000 0.00000000 0.04000000
v 0.05500000 -0.00600000 -0.04000000
v 0.05500000 -0.00600000 0.04000000
v -0.03500000 -0.01200000 0.02500000
v -0.03500000 -0.01200000 -0.02500000
v -0.04650000 -0.01200000 -0.01240192
v -0.04200000 -0.01200000 0.01500000
v -0.04240192 -0.01200000 0.01350000
v -0.04759808 -0.01200000 -0.01650000
v -0.04800000 -0.01200000 -0.01500000
v -0.04759808 -0.01200000 -0.01350000
v -0.04800000 -0.01200000 0.01500000
v -0.04759808 -0.01200000 0.01350000
v -0.04650000 -0.01200000 0.01240192
v -0.04500000 -0.01200000 0.01200000
v -0.04350000 -0.01200000 0.01240192
v -0.04759808 -0.01200000 0.01650000
v -0.04650000 -0.01200000 0.01759808
v -0.04500000 -0.01200000 0.01800000
v -0.04240192 -0.01200000 -0.01650000
v -0.04350000 -0.01200000 -0.01759808
v -0.04500000 -0.01200000 -0.01800000
v -0.04650000 -0.01200000 -0.01759808
v -0.04350000 -0.01200000 0.01759808
v -0.04240192 -0.01200000 0.01650000
v -0.04500000 -0.01200000 -0.01200000
v -0.04350000 -0.01200000 -0.01240192
v -0.04240192 -0.01200000 -0.01350000
v -0.04200000 -0.01200000 -0.01500000
v -0.04800000 -0.00200000 0.01500000
v -0.04759808 -0.00200000 0.01350000
v -0.04650000 -0.00200000 0.01240192
v -0.04500000 -0.00200000 0.01200000
v -0.04350000 -0.00200000 0.01240192
v -0.04240192 -0.00200000 0.01350000
v -0.04200000 -0.00200000 0.01500000
v -0.04240192 -0.00200000 0.01650000
v -0.04350000 -0.00200000 0.01759808
v -0.04500000 -0.00200000 0.01800000
v -0.04650000 -0.00200000 0.01759808
v -0.04759808 -0.00200000 0.01650000
v -0.04500000 -0.00200000 0.01500000
v -0.04800000 -0.00200000 -0.01500000
v -0.04759808 -0.00200000 -0.01650000
v -0.04650000 -0.00200000 -0.01759808
v -0.04500000 -0.00200000 -0.01800000
v -0.04350000 -0.00200000 -0.01759808
v -0.04240192 -0.00200000 -0.01650000
v -0.04200000 -0.00200000 -0.01500000
v -0.04240192 -0.00200000 -0.01350000
v -0.04350000 -0.00200000 -0.01240192
v -0.04500000 -0.00200000 -0.01200000
v -0.04650000 -0.00200000 -0.01240192
v -0.04759808 -0.00200000 -0.01350000
v -0.04500000 -0.00200000 -0.01500000
f 1 2 3
f 3 2 4
f 5 6 7
f 7 6 8
f 9 10 11
f 11 10 12
f 13 14 15
f 15 14 16
f 17 18 19
f 19 18 20
f 21 22 23
f 23 22 24
f 25 26 27
f 27 26 28
f 29 30 31
f 31 30 32
f 33 34 35
f 35 34 36
f 37 38 39
f 39 38 40
f 41 42 43
f 43 42 44
f 45 46 47
f 47 46 48
f 49 50 51
f 51 50 52
f 53 54 55
f 55 54 56
f 57 58 59
f 59 58 60
f 61 62 63
f 63 62 64
f 65 66 67
f 67 66 68
f 69 70 71
f 71 70 72
f 73 74 75
f 75 74 76
f 77 78 79
f 79 78 80
f 81 82 83
f 83 82 84
f 85 86 87
f 87 86 88
f 89 90 91
f 91 90 92
f 93 94 95
f 95 94 96
f 97 98 99
f 99 98 100
f 101 102 103
f 103 102 104
f 105 106 107
f 107 106 108
f 109 110 111
f 111 110 112
f 113 114 115
f 115 114 116
f 117 118 119
f 119 118 120
f 121 122 123
f 123 122 124
f 125 126 127
f 127 126 128
f 129 130 131
f 131 130 132
f 133 134 135
f 135 134 136
f 137 138 139
f 139 138 140
f 141 142 143
f 143 142 144
f 145 146 147
f 147 146 148
f 149 150 151
f 152 153 154
f 155 156 154
f 154 156 149
f 154 149 152
f 152 149 151
f 3 4 157
f 158 155 154
f 157 159 3
f 3 159 160
f 3 160 154
f 161 162 154
f 158 154 163
f 164 165 154
f 5 7 162
f 162 7 166
f 162 166 154
f 154 166 167
f 154 167 163
f 163 167 145
f 163 145 147
f 168 49 51
f 169 170 154
f 160 171 172
f 113 115 173
f 173 115 174
f 175 41 43
f 176 177 154
f 43 169 175
f 175 169 154
f 175 154 178
f 178 154 165
f 178 165 47
f 47 165 45
f 73 75 179
f 179 75 180
f 181 33 35
f 182 9 11
f 183 125 127
f 184 185 154
f 186 77 79
f 35 184 181
f 181 184 154
f 181 154 187
f 187 154 170
f 187 170 39
f 39 170 37
f 188 17 19
f 189 65 67
f 190 25 27
f 191 192 154
f 137 139 172
f 172 139 193
f 172 193 160
f 160 193 194
f 160 195 196
f 197 198 154
f 27 176 190
f 190 176 154
f 190 154 199
f 199 154 185
f 199 185 31
f 31 185 29
f 19 191 188
f 188 191 154
f 188 154 200
f 200 154 177
f 200 177 23
f 23 177 21
f 201 154 202
f 202 154 203
f 202 203 111
f 111 203 109
f 204 101 103
f 205 179 154
f 154 179 180
f 154 180 206
f 67 197 189
f 189 197 154
f 189 154 207
f 207 154 206
f 207 206 71
f 71 206 69
f 11 161 182
f 182 161 154
f 182 154 208
f 208 154 192
f 208 192 15
f 15 192 13
f 133 135 194
f 194 135 209
f 194 209 160
f 160 209 210
f 121 123 196
f 196 123 211
f 196 211 160
f 160 211 212
f 117 119 212
f 212 119 213
f 212 213 160
f 160 213 173
f 160 173 154
f 154 173 174
f 154 174 203
f 214 57 59
f 129 131 210
f 210 131 215
f 210 215 160
f 160 215 183
f 160 183 195
f 195 183 127
f 216 217 154
f 218 219 154
f 59 218 214
f 214 218 154
f 214 154 220
f 220 154 198
f 220 198 63
f 63 198 61
f 105 107 201
f 201 107 221
f 201 221 154
f 154 221 204
f 154 204 216
f 216 204 103
f 222 93 95
f 51 164 168
f 168 164 154
f 168 154 223
f 223 154 219
f 223 219 55
f 55 219 53
f 224 225 154
f 95 224 222
f 222 224 154
f 222 154 226
f 226 154 217
f 226 217 99
f 99 217 97
f 227 85 87
f 228 229 154
f 87 228 227
f 227 228 154
f 227 154 230
f 230 154 225
f 230 225 91
f 91 225 89
f 79 205 186
f 186 205 154
f 186 154 231
f 231 154 229
f 231 229 83
f 83 229 81
f 232 233 234
f 235 232 144
f 144 232 234
f 144 234 143
f 143 234 236
f 156 237 149
f 149 237 238
f 148 146 238
f 238 146 239
f 238 239 149
f 149 239 240
f 12 10 241
f 241 10 242
f 243 52 50
f 244 144 245
f 245 144 246
f 245 246 14
f 14 246 16
f 8 6 240
f 240 6 247
f 240 247 149
f 149 247 241
f 149 241 144
f 144 241 242
f 144 242 246
f 248 32 30
f 249 250 144
f 20 18 244
f 244 18 251
f 244 251 144
f 144 251 252
f 24 22 252
f 252 22 253
f 252 253 144
f 144 253 254
f 255 72 70
f 30 249 248
f 248 249 144
f 248 144 256
f 256 144 254
f 256 254 26
f 26 254 28
f 257 56 54
f 258 116 114
f 259 260 144
f 80 78 261
f 261 78 262
f 263 264 144
f 36 34 250
f 250 34 265
f 250 265 144
f 144 265 266
f 40 38 266
f 266 38 267
f 266 267 144
f 144 267 268
f 269 76 74
f 44 42 268
f 268 42 270
f 268 270 144
f 144 270 271
f 54 259 257
f 257 259 144
f 257 144 272
f 273 124 122
f 48 46 271
f 271 46 274
f 271 274 144
f 144 274 243
f 144 243 272
f 272 243 50
f 275 64 62
f 276 88 86
f 277 278 144
f 279 280 144
f 281 261 144
f 144 261 262
f 144 262 282
f 283 284 144
f 122 277 273
f 273 277 144
f 273 144 285
f 285 144 264
f 285 264 118
f 118 264 120
f 62 279 275
f 275 279 144
f 275 144 286
f 286 144 260
f 286 260 58
f 58 260 60
f 86 283 276
f 276 283 144
f 276 144 287
f 287 144 282
f 287 282 82
f 82 282 84
f 288 132 130
f 74 281 269
f 269 281 144
f 269 144 289
f 290 96 94
f 291 292 144
f 68 66 280
f 280 66 293
f 280 293 144
f 144 293 255
f 144 255 289
f 289 255 70
f 294 295 144
f 130 291 288
f 288 291 144
f 288 144 296
f 296 144 278
f 296 278 126
f 126 278 128
f 94 294 290
f 290 294 144
f 290 144 297
f 297 144 284
f 297 284 90
f 90 284 92
f 134 298 136
f 136 298 292
f 292 298 144
f 144 298 299
f 144 299 235
f 235 299 140
f 235 140 138
f 300 104 102
f 301 302 144
f 102 301 300
f 300 301 144
f 300 144 303
f 303 144 295
f 303 295 98
f 98 295 100
f 108 106 302
f 302 106 304
f 302 304 144
f 144 304 305
f 114 263 258
f 258 263 144
f 258 144 306
f 306 144 305
f 306 305 110
f 110 305 112
f 172 235 137
f 137 235 138
f 235 172 232
f 232 172 171
f 299 193 140
f 140 193 139
f 194 298 133
f 133 298 134
f 194 193 298
f 298 193 299
f 292 209 136
f 136 209 135
f 210 291 129
f 129 291 130
f 210 209 291
f 291 209 292
f 288 215 132
f 132 215 131
f 183 296 125
f 125 296 126
f 183 215 296
f 296 215 288
f 278 195 128
f 128 195 127
f 196 277 121
f 121 277 122
f 196 195 277
f 277 195 278
f 273 211 124
f 124 211 123
f 212 285 117
f 117 285 118
f 212 211 285
f 285 211 273
f 264 213 120
f 120 213 119
f 173 263 113
f 113 263 114
f 173 213 263
f 263 213 264
f 258 174 116
f 116 174 115
f 203 306 109
f 109 306 110
f 203 174 306
f 306 174 258
f 305 202 112
f 112 202 111
f 201 304 105
f 105 304 106
f 201 202 304
f 304 202 305
f 302 221 108
f 108 221 107
f 204 301 101
f 101 301 102
f 204 221 301
f 301 221 302
f 300 216 104
f 104 216 103
f 217 303 97
f 97 303 98
f 217 216 303
f 303 216 300
f 295 226 100
f 100 226 99
f 222 294 93
f 93 294 94
f 222 226 294
f 294 226 295
f 290 224 96
f 96 224 95
f 225 297 89
f 89 297 90
f 225 224 297
f 297 224 290
f 284 230 92
f 92 230 91
f 227 283 85
f 85 283 86
f 227 230 283
f 283 230 284
f 276 228 88
f 88 228 87
f 229 287 81
f 81 287 82
f 229 228 287
f 287 228 276
f 282 231 84
f 84 231 83
f 186 262 77
f 77 262 78
f 186 231 262
f 262 231 282
f 261 205 80
f 80 205 79
f 179 281 73
f 73 281 74
f 179 205 281
f 281 205 261
f 269 180 76
f 76 180 75
f 206 289 69
f 69 289 70
f 206 180 289
f 289 180 269
f 255 207 72
f 72 207 71
f 189 293 65
f 65 293 66
f 189 207 293
f 293 207 255
f 280 197 68
f 68 197 67
f 198 279 61
f 61 279 62
f 198 197 279
f 279 197 280
f 275 220 64
f 64 220 63
f 214 286 57
f 57 286 58
f 214 220 286
f 286 220 275
f 260 218 60
f 60 218 59
f 219 259 53
f 53 259 54
f 219 218 259
f 259 218 260
f 257 223 56
f 56 223 55
f 168 272 49
f 49 272 50
f 168 223 272
f 272 223 257
f 243 164 52
f 52 164 51
f 165 274 45
f 45 274 46
f 165 164 274
f 274 164 243
f 271 178 48
f 48 178 47
f 175 270 41
f 41 270 42
f 175 178 270
f 270 178 271
f 268 169 44
f 44 169 43
f 170 267 37
f 37 267 38
f 170 169 267
f 267 169 268
f 266 187 40
f 40 187 39
f 181 265 33
f 33 265 34
f 181 187 265
f 265 187 266
f 250 184 36
f 36 184 35
f 185 249 29
f 29 249 30
f 185 184 249
f 249 184 250
f 248 199 32
f 32 199 31
f 190 256 25
f 25 256 26
f 190 199 256
f 256 199 248
f 254 176 28
f 28 176 27
f 177 253 21
f 21 253 22
f 177 176 253
f 253 176 254
f 252 200 24
f 24 200 23
f 188 251 17
f 17 251 18
f 188 200 251
f 251 200 252
f 244 191 20
f 20 191 19
f 192 245 13
f 13 245 14
f 192 191 245
f 245 191 244
f 246 208 16
f 16 208 15
f 182 242 9
f 9 242 10
f 182 208 242
f 242 208 246
f 241 161 12
f 12 161 11
f 162 247 5
f 5 247 6
f 162 161 247
f 247 161 241
f 240 166 8
f 8 166 7
f 167 239 145
f 145 239 146
f 167 166 239
f 239 166 240
f 238 163 148
f 148 163 147
f 158 237 155
f 155 237 156
f 158 163 237
f 237 163 238
f 150 149 142
f 142 149 144
f 151 150 141
f 141 150 142
f 4 2 152
f 307 157 4
f 151 141 143
f 236 307 143
f 143 307 4
f 143 4 151
f 151 4 152
f 153 152 1
f 1 152 2
f 154 153 3
f 3 153 1
f 233 232 308
f 308 232 171
f 309 310 311
f 311 310 312
f 313 314 311
f 171 312 308
f 308 312 315
f 308 315 316
f 314 317 311
f 311 317 318
f 311 318 319
f 319 318 320
f 319 320 321
f 171 160 312
f 312 160 322
f 312 322 311
f 311 322 323
f 311 323 313
f 316 324 308
f 308 324 325
f 308 325 326
f 326 325 327
f 326 327 328
f 321 329 319
f 319 329 330
f 319 330 331
f 330 332 331
f 331 332 333
f 331 333 322
f 322 333 334
f 322 334 323
f 328 335 326
f 326 335 336
f 326 336 311
f 311 336 337
f 311 337 309
f 234 233 338
f 338 233 308
f 338 308 339
f 340 339 326
f 326 339 308
f 340 326 341
f 341 326 311
f 341 311 342
f 342 311 343
f 343 311 319
f 343 319 344
f 344 319 331
f 344 331 345
f 346 345 322
f 322 345 331
f 159 346 160
f 160 346 322
f 347 344 348
f 348 344 345
f 348 345 349
f 349 345 346
f 349 346 350
f 350 346 351
f 157 307 159
f 159 307 338
f 159 338 346
f 346 338 339
f 340 341 352
f 352 353 340
f 340 353 354
f 340 354 339
f 339 354 355
f 339 355 346
f 346 355 356
f 346 356 351
f 334 357 323
f 323 357 358
f 323 358 313
f 313 358 359
f 313 359 314
f 314 359 360
f 314 360 317
f 317 360 361
f 317 361 318
f 318 361 362
f 318 362 320
f 320 362 363
f 320 363 321
f 321 363 364
f 321 364 329
f 329 364 365
f 329 365 330
f 330 365 366
f 330 366 332
f 332 366 367
f 332 367 333
f 333 367 368
f 333 368 334
f 334 368 357
f 359 369 360
f 360 369 370
f 360 370 361
f 361 370 371
f 361 371 362
f 362 371 372
f 362 372 363
f 363 372 373
f 363 373 364
f 364 373 374
f 364 374 365
f 365 374 375
f 365 375 366
f 366 375 376
f 366 376 367
f 367 376 377
f 367 377 368
f 368 377 378
f 368 378 357
f 357 378 379
f 357 379 358
f 358 379 380
f 358 380 359
f 359 380 369
f 369 381 370
f 370 381 382
f 370 382 371
f 371 382 383
f 371 383 372
f 372 383 384
f 372 384 373
f 373 384 385
f 373 385 374
f 374 385 386
f 380 351 369
f 369 351 387
f 369 387 381
f 386 388 374
f 374 388 389
f 374 389 375
f 375 389 390
f 375 390 376
f 376 390 391
f 376 391 377
f 377 391 347
f 377 347 378
f 378 347 348
f 378 348 379
f 379 348 349
f 379 349 380
f 380 349 350
f 380 350 351
f 327 392 328
f 328 392 393
f 328 393 335
f 335 393 394
f 335 394 336
f 336 394 395
f 336 395 337
f 337 395 396
f 337 396 309
f 309 396 397
f 309 397 310
f 310 397 398
f 310 398 312
f 312 398 399
f 312 399 315
f 315 399 400
f 315 400 316
f 316 400 401
f 316 401 324
f 324 401 402
f 324 402 325
f 325 402 403
f 325 403 327
f 327 403 392
f 399 404 400
f 400 404 405
f 400 405 401
f 401 405 406
f 401 406 402
f 402 406 407
f 402 407 403
f 403 407 408
f 403 408 392
f 392 408 409
f 392 409 393
f 393 409 410
f 393 410 394
f 394 410 411
f 394 411 395
f 395 411 412
f 395 412 396
f 396 412 413
f 396 413 397
f 397 413 414
f 397 414 398
f 398 414 415
f 398 415 399
f 399 415 404
f 356 407 406
f 356 406 416
f 416 406 405
f 416 405 417
f 417 405 404
f 417 404 418
f 411 419 412
f 412 419 420
f 412 420 413
f 413 420 421
f 413 421 414
f 414 421 422
f 414 422 415
f 415 422 423
f 415 423 404
f 404 423 424
f 404 424 418
f 407 356 408
f 408 356 355
f 408 355 409
f 409 355 354
f 409 354 410
f 410 354 353
f 410 353 411
f 411 353 352
f 411 352 419
f 347 391 344
f 344 391 390
f 344 390 343
f 422 421 342
f 342 421 420
f 342 420 341
f 341 420 419
f 341 419 352
f 417 382 416
f 416 382 381
f 416 381 356
f 356 381 387
f 356 387 351
f 390 389 343
f 343 389 388
f 343 388 386
f 417 418 343
f 343 418 424
f 343 424 342
f 342 424 423
f 342 423 422
f 386 385 343
f 343 385 384
f 343 384 417
f 417 384 383
f 417 383 382
f 234 338 236
f 236 338 307
f 425 426 427
f 427 426 428
f 427 428 429
f 429 428 430
f 429 430 431
f 431 430 432
f 431 432 433
f 433 432 434
f 433 434 435
f 435 434 436
f 435 436 425
f 425 436 426
f 437 436 438
f 438 436 434
f 439 437 440
f 440 437 438
f 428 439 430
f 430 439 440
f 437 439 436
f 436 439 428
f 436 428 426
f 440 438 430
f 430 438 434
f 430 434 432
f 433 441 431
f 431 441 429
f 441 442 429
f 429 442 427
f 442 435 427
f 427 435 425
f 443 444 445
f 446 447 435
f 435 447 448
f 449 433 450
f 450 433 435
f 450 435 451
f 451 435 448
f 451 448 452
f 452 448 443
f 452 443 453
f 453 443 445
f 449 454 433
f 433 454 455
f 433 455 441
f 441 455 456
f 457 458 442
f 442 458 459
f 442 459 435
f 435 459 460
f 435 460 446
f 456 461 441
f 441 461 462
f 441 462 444
f 443 463 444
f 444 463 464
f 444 464 441
f 441 464 465
f 441 465 442
f 442 465 466
f 442 466 457
f 467 449 468
f 468 449 450
f 468 450 469
f 469 450 451
f 469 451 470
f 470 451 452
f 470 452 471
f 471 452 453
f 471 453 472
f 472 453 445
f 472 445 473
f 473 445 444
f 473 444 474
f 474 444 462
f 474 462 475
f 475 462 461
f 475 461 476
f 476 461 456
f 476 456 477
f 477 456 455
f 477 455 478
f 478 455 454
f 478 454 467
f 467 454 449
f 477 478 479
f 479 478 467
f 479 467 468
f 474 475 479
f 479 475 476
f 479 476 477
f 471 472 479
f 479 472 473
f 479 473 474
f 468 469 479
f 479 469 470
f 479 470 471
f 480 447 481
f 481 447 446
f 481 446 482
f 482 446 460
f 482 460 483
f 483 460 459
f 483 459 484
f 484 459 458
f 484 458 485
f 485 458 457
f 485 457 486
f 486 457 466
f 486 466 487
f 487 466 465
f 487 465 488
f 488 465 464
f 488 464 489
f 489 464 463
f 489 463 490
f 490 463 443
f 490 443 491
f 491 443 448
f 491 448 480
f 480 448 447
f 490 491 492
f 492 491 480
f 492 480 481
f 487 488 492
f 492 488 489
f 492 489 490
f 484 485 492
f 492 485 486
f 492 486 487
f 481 482 492
f 492 482 483
f 492 483 484

