mtllib material.mtl
usemtl mtl_LINK4
v 0.00600000 0.01275000 0.03700000
v 0.00600000 0.01275000 0.04000000
v 0.00741012 0.01307185 0.03700000
v 0.00741012 0.01307185 0.04000000
v 0.00854095 0.01397366 0.03700000
v 0.00854095 0.01397366 0.04000000
v 0.00916852 0.01527681 0.03700000
v 0.00916852 0.01527681 0.04000000
v 0.00916852 0.01672319 0.03700000
v 0.00916852 0.01672319 0.04000000
v 0.00854095 0.01802634 0.03700000
v 0.00854095 0.01802634 0.04000000
v 0.00741012 0.01892815 0.03700000
v 0.00741012 0.01892815 0.04000000
v 0.00600000 0.01925000 0.03700000
v 0.00600000 0.01925000 0.04000000
v 0.00600000 -0.01925000 0.03700000
v 0.00600000 -0.01925000 0.04000000
v 0.00741012 -0.01892815 0.03700000
v 0.00741012 -0.01892815 0.04000000
v 0.00854095 -0.01802634 0.03700000
v 0.00854095 -0.01802634 0.04000000
v 0.00916852 -0.01672319 0.03700000
v 0.00916852 -0.01672319 0.04000000
v 0.00916852 -0.01527681 0.03700000
v 0.00916852 -0.01527681 0.04000000
v 0.00854095 -0.01397366 0.03700000
v 0.00854095 -0.01397366 0.04000000
v 0.00741012 -0.01307185 0.03700000
v 0.00741012 -0.01307185 0.04000000
v 0.00600000 -0.01275000 0.03700000
v 0.00600000 -0.01275000 0.04000000
v 0.00600000 -0.00325000 0.03700000
v 0.00600000 -0.00325000 0.04000000
v 0.00741012 -0.00292815 0.03700000
v 0.00741012 -0.00292815 0.04000000
v 0.00854095 -0.00202634 0.03700000
v 0.00854095 -0.00202634 0.04000000
v 0.00916852 -0.00072319 0.03700000
v 0.00916852 -0.00072319 0.04000000
v 0.00916852 0.00072319 0.03700000
v 0.00916852 0.00072319 0.04000000
v 0.00854095 0.00202634 0.03700000
v 0.00854095 0.00202634 0.04000000
v 0.00741012 0.00292815 0.03700000
v 0.00741012 0.00292815 0.04000000
v 0.00600000 0.00325000 0.03700000
v 0.00600000 0.00325000 0.04000000
v 0.00715000 -0.02199186 0.03200000
v 0.00600000 -0.02230000 0.03200000
v 0.00799186 -0.02115000 0.03200000
v 0.00600000 -0.01770000 0.03200000
v 0.00830000 -0.02000000 0.03200000
v 0.00600000 0.01430000 0.03200000
v 0.00770000 0.00000000 0.03200000
v 0.00747224 0.00085000 0.03200000
v 0.00515000 -0.01452776 0.03200000
v 0.00515000 -0.00147224 0.03200000
v 0.00600000 -0.01430000 0.03200000
v 0.00600000 -0.00170000 0.03200000
v 0.00685000 -0.01452776 0.03200000
v 0.00485000 -0.02199186 0.03200000
v 0.00400814 -0.02115000 0.03200000
v 0.00515000 -0.01747224 0.03200000
v 0.00370000 -0.02000000 0.03200000
v 0.00452776 -0.01685000 0.03200000
v 0.00685000 -0.01747224 0.03200000
v 0.00747224 -0.01685000 0.03200000
v 0.00770000 -0.01600000 0.03200000
v 0.00747224 -0.00085000 0.03200000
v 0.00515000 0.00147224 0.03200000
v 0.00452776 0.00085000 0.03200000
v 0.00370000 0.02000000 0.03200000
v 0.00430000 0.00000000 0.03200000
v 0.00685000 -0.00147224 0.03200000
v 0.00747224 -0.01515000 0.03200000
v 0.00685000 0.01452776 0.03200000
v 0.00747224 0.01515000 0.03200000
v 0.00770000 0.01600000 0.03200000
v 0.00830000 0.02000000 0.03200000
v 0.00485000 0.02199186 0.03200000
v 0.00600000 0.02230000 0.03200000
v 0.00400814 0.02115000 0.03200000
v 0.00600000 0.01770000 0.03200000
v 0.00515000 0.01747224 0.03200000
v 0.00452776 0.01685000 0.03200000
v 0.00430000 0.01600000 0.03200000
v 0.00430000 -0.01600000 0.03200000
v 0.00452776 -0.01515000 0.03200000
v 0.00452776 -0.00085000 0.03200000
v 0.00747224 0.01685000 0.03200000
v 0.00685000 0.01747224 0.03200000
v 0.00799186 0.02115000 0.03200000
v 0.00715000 0.02199186 0.03200000
v 0.00685000 0.00147224 0.03200000
v 0.00600000 0.00170000 0.03200000
v 0.00515000 0.01452776 0.03200000
v 0.00452776 0.01515000 0.03200000
v 0.03000000 0.00000000 0.04000000
v 0.03800000 0.02800000 0.04000000
v 0.00300000 0.02800000 0.04000000
v 0.06590436 0.00231222 0.04000000
v 0.06514321 0.00687359 0.04000000
v 0.00387868 0.02012868 0.04000000
v 0.00485195 0.01947836 0.04000000
v 0.00322836 0.02110195 0.04000000
v 0.00300000 0.02225000 0.04000000
v 0.04260865 0.02761812 0.04000000
v 0.04047213 -0.00760845 0.04000000
v 0.03800000 -0.00800000 0.04000000
v 0.04260865 -0.02761812 0.04000000
v 0.03039155 -0.00247214 0.04000000
v 0.03800000 -0.02800000 0.04000000
v 0.06364165 0.01124747 0.04000000
v 0.06144066 0.01531455 0.04000000
v 0.05860027 0.01896388 0.04000000
v 0.00387868 0.01187132 0.04000000
v 0.00322836 0.01089805 0.04000000
v 0.00485195 0.01252164 0.04000000
v 0.00300000 0.00975000 0.04000000
v 0.05519795 0.02209593 0.04000000
v 0.05132652 0.02462526 0.04000000
v 0.04709158 0.02648288 0.04000000
v 0.06364165 -0.01124747 0.04000000
v 0.04560845 -0.00247214 0.04000000
v 0.04447214 -0.00470228 0.04000000
v 0.04270228 -0.00647214 0.04000000
v 0.05860027 -0.01896388 0.04000000
v 0.06144066 -0.01531455 0.04000000
v 0.03552786 -0.00760845 0.04000000
v 0.03329772 -0.00647214 0.04000000
v 0.03152786 -0.00470228 0.04000000
v 0.00485195 -0.01947836 0.04000000
v 0.00387868 -0.02012868 0.04000000
v 0.00387868 0.00412868 0.04000000
v 0.00485195 0.00347836 0.04000000
v 0.00322836 0.00510195 0.04000000
v 0.00300000 0.00625000 0.04000000
v 0.03329772 0.00647214 0.04000000
v 0.03552786 0.00760845 0.04000000
v 0.04447214 0.00470228 0.04000000
v 0.04560845 0.00247214 0.04000000
v 0.04600000 0.00000000 0.04000000
v 0.06590436 -0.00231222 0.04000000
v 0.06514321 -0.00687359 0.04000000
v 0.04709158 -0.02648288 0.04000000
v 0.05132652 -0.02462526 0.04000000
v 0.05519795 -0.02209593 0.04000000
v 0.00300000 -0.02800000 0.04000000
v 0.00300000 -0.02225000 0.04000000
v 0.00322836 -0.02110195 0.04000000
v 0.03039155 0.00247214 0.04000000
v 0.03152786 0.00470228 0.04000000
v 0.00387868 -0.00412868 0.04000000
v 0.00322836 -0.00510195 0.04000000
v 0.00485195 -0.00347836 0.04000000
v 0.00300000 -0.00625000 0.04000000
v 0.00387868 -0.01187132 0.04000000
v 0.00485195 -0.01252164 0.04000000
v 0.00322836 -0.01089805 0.04000000
v 0.00300000 -0.00975000 0.04000000
v 0.03800000 0.00800000 0.04000000
v 0.04047213 0.00760845 0.04000000
v 0.04270228 0.00647214 0.04000000
v 0.00715000 -0.02199186 0.03500000
v 0.03800000 -0.02800000 0.03500000
v 0.00600000 -0.02230000 0.03500000
v 0.00300000 -0.02800000 0.03500000
v 0.00485000 -0.02199186 0.03500000
v 0.00400814 0.02115000 0.03500000
v 0.00300000 0.02800000 0.03500000
v 0.00485000 0.02199186 0.03500000
v 0.00600000 0.02230000 0.03500000
v 0.00715000 0.02199186 0.03500000
v 0.03800000 0.02800000 0.03500000
v 0.00799186 0.02115000 0.03500000
v 0.03000000 0.00000000 0.03500000
v 0.00799186 -0.02115000 0.03500000
v 0.03039155 0.00247214 0.03500000
v 0.03152786 0.00470228 0.03500000
v 0.00370000 0.02000000 0.03500000
v 0.00370000 -0.02000000 0.03500000
v 0.00400814 -0.02115000 0.03500000
v 0.03039155 -0.00247214 0.03500000
v 0.03152786 -0.00470228 0.03500000
v 0.03329772 -0.00647214 0.03500000
v 0.04270228 -0.00647214 0.03500000
v 0.04447214 -0.00470228 0.03500000
v 0.05860027 -0.01896388 0.03500000
v 0.03552786 -0.00760845 0.03500000
v 0.03800000 -0.00800000 0.03500000
v 0.04260865 -0.02761812 0.03500000
v 0.04047213 -0.00760845 0.03500000
v 0.05519795 -0.02209593 0.03500000
v 0.05132652 -0.02462526 0.03500000
v 0.04709158 -0.02648288 0.03500000
v 0.04560845 -0.00247214 0.03500000
v 0.06364165 -0.01124747 0.03500000
v 0.06144066 -0.01531455 0.03500000
v 0.04447214 0.00470228 0.03500000
v 0.06364165 0.01124747 0.03500000
v 0.04560845 0.00247214 0.03500000
v 0.06514321 0.00687359 0.03500000
v 0.04600000 0.00000000 0.03500000
v 0.06590436 0.00231222 0.03500000
v 0.06590436 -0.00231222 0.03500000
v 0.06514321 -0.00687359 0.03500000
v 0.04270228 0.00647214 0.03500000
v 0.05860027 0.01896388 0.03500000
v 0.06144066 0.01531455 0.03500000
v 0.04047213 0.00760845 0.03500000
v 0.05132652 0.02462526 0.03500000
v 0.05519795 0.02209593 0.03500000
v 0.00830000 -0.02000000 0.03500000
v 0.00830000 0.02000000 0.03500000
v 0.03329772 0.00647214 0.03500000
v 0.03552786 0.00760845 0.03500000
v 0.03800000 0.00800000 0.03500000
v 0.04260865 0.02761812 0.03500000
v 0.04709158 0.02648288 0.03500000
v 0.00300000 0.02225000 0.03700000
v 0.00300000 0.00975000 0.03700000
v 0.00300000 0.00625000 0.03700000
v 0.00300000 -0.02225000 0.03700000
v 0.00300000 -0.00975000 0.03700000
v 0.00300000 -0.00625000 0.03700000
v 0.00387868 0.02012868 0.03700000
v 0.00322836 0.02110195 0.03700000
v 0.00515000 0.01747224 0.03700000
v 0.00322836 0.01089805 0.03700000
v 0.00770000 0.01600000 0.03700000
v 0.00747224 0.01685000 0.03700000
v 0.00685000 0.01747224 0.03700000
v 0.00600000 0.01770000 0.03700000
v 0.00485195 0.01947836 0.03700000
v 0.00387868 0.01187132 0.03700000
v 0.00515000 0.01452776 0.03700000
v 0.00485195 0.01252164 0.03700000
v 0.00600000 0.01430000 0.03700000
v 0.00685000 0.01452776 0.03700000
v 0.00747224 0.01515000 0.03700000
v 0.00452776 0.01515000 0.03700000
v 0.00430000 0.01600000 0.03700000
v 0.00452776 0.01685000 0.03700000
v 0.00322836 -0.01089805 0.03700000
v 0.00322836 -0.02110195 0.03700000
v 0.00387868 -0.01187132 0.03700000
v 0.00515000 -0.01452776 0.03700000
v 0.00515000 -0.01747224 0.03700000
v 0.00452776 -0.01685000 0.03700000
v 0.00430000 -0.01600000 0.03700000
v 0.00452776 -0.01515000 0.03700000
v 0.00770000 -0.01600000 0.03700000
v 0.00747224 -0.01515000 0.03700000
v 0.00685000 -0.01452776 0.03700000
v 0.00600000 -0.01430000 0.03700000
v 0.00485195 -0.01252164 0.03700000
v 0.00387868 -0.02012868 0.03700000
v 0.00485195 -0.01947836 0.03700000
v 0.00600000 -0.01770000 0.03700000
v 0.00685000 -0.01747224 0.03700000
v 0.00747224 -0.01685000 0.03700000
v 0.00387868 0.00412868 0.03700000
v 0.00322836 0.00510195 0.03700000
v 0.00515000 0.00147224 0.03700000
v 0.00322836 -0.00510195 0.03700000
v 0.00770000 0.00000000 0.03700000
v 0.00747224 0.00085000 0.03700000
v 0.00685000 0.00147224 0.03700000
v 0.00600000 0.00170000 0.03700000
v 0.00485195 0.00347836 0.03700000
v 0.00515000 -0.00147224 0.03700000
v 0.00452776 -0.00085000 0.03700000
v 0.00430000 0.00000000 0.03700000
v 0.00452776 0.00085000 0.03700000
v 0.00387868 -0.00412868 0.03700000
v 0.00485195 -0.00347836 0.03700000
v 0.00600000 -0.00170000 0.03700000
v 0.00685000 -0.00147224 0.03700000
v 0.00747224 -0.00085000 0.03700000
v 0.00900000 -0.02800000 -0.03500000
v 0.00600000 -0.02230000 -0.03500000
v 0.00715000 -0.02199186 -0.03500000
v 0.00485000 -0.02199186 -0.03500000
v 0.00300000 -0.02800000 -0.03500000
v 0.00400814 -0.02115000 -0.03500000
v 0.00799186 0.02115000 -0.03500000
v 0.00715000 0.02199186 -0.03500000
v 0.00900000 0.02800000 -0.03500000
v 0.00600000 0.02230000 -0.03500000
v 0.00300000 0.02800000 -0.03500000
v 0.00485000 0.02199186 -0.03500000
v 0.00799186 -0.02115000 -0.03500000
v 0.00830000 -0.02000000 -0.03500000
v 0.00830000 0.02000000 -0.03500000
v 0.00400814 0.02115000 -0.03500000
v 0.00370000 0.02000000 -0.03500000
v 0.00370000 -0.02000000 -0.03500000
v -0.00000000 -0.01739741 0.00189208
v -0.00000000 -0.01750000 0.00000000
v 0.00300000 -0.01750000 0.00000000
v 0.00300000 -0.01739741 -0.00189208
v -0.00000000 -0.01739741 -0.00189208
v -0.00000000 -0.01658393 -0.00558778
v 0.00300000 -0.01658393 -0.00558778
v -0.00000000 -0.01499500 -0.00902219
v 0.00300000 -0.01499500 -0.00902219
v -0.00000000 -0.01270492 -0.01203474
v 0.00300000 -0.01270492 -0.01203474
v -0.00000000 -0.00982077 -0.01448456
v 0.00300000 -0.00982077 -0.01448456
v -0.00000000 -0.00647742 -0.01625709
v 0.00300000 -0.00647742 -0.01625709
v -0.00000000 -0.00283119 -0.01726946
v 0.00300000 -0.00283119 -0.01726946
v -0.00000000 0.00094743 -0.01747433
v 0.00300000 0.00094743 -0.01747433
v -0.00000000 0.00468175 -0.01686212
v 0.00300000 0.00468175 -0.01686212
v -0.00000000 0.00819715 -0.01546146
v 0.00300000 0.00819715 -0.01546146
v -0.00000000 0.01132926 -0.01333784
v 0.00300000 0.01132926 -0.01333784
v -0.00000000 0.01393163 -0.01059055
v 0.00300000 0.01393163 -0.01059055
v -0.00000000 0.01588257 -0.00734806
v 0.00300000 0.01588257 -0.00734806
v -0.00000000 0.01709086 -0.00376198
v 0.00300000 0.01709086 -0.00376198
v -0.00000000 0.01750000 0.00000000
v 0.00300000 0.01750000 0.00000000
v -0.00000000 0.01709086 0.00376198
v 0.00300000 0.01709086 0.00376198
v -0.00000000 0.01588257 0.00734806
v 0.00300000 0.01588257 0.00734806
v -0.00000000 0.01393163 0.01059055
v 0.00300000 0.01393163 0.01059055
v -0.00000000 0.01132926 0.01333784
v 0.00300000 0.01132926 0.01333784
v -0.00000000 0.00819715 0.01546146
v 0.00300000 0.00819715 0.01546146
v -0.00000000 0.00468175 0.01686212
v 0.00300000 0.00468175 0.01686212
v -0.00000000 0.00094743 0.01747433
v 0.00300000 0.00094743 0.01747433
v -0.00000000 -0.00283119 0.01726946
v 0.00300000 -0.00283119 0.01726946
v -0.00000000 -0.00647742 0.01625709
v 0.00300000 -0.00647742 0.01625709
v -0.00000000 -0.00982077 0.01448456
v 0.00300000 -0.00982077 0.01448456
v -0.00000000 -0.01270492 0.01203474
v 0.00300000 -0.01270492 0.01203474
v -0.00000000 -0.01499500 0.00902219
v 0.00300000 -0.01499500 0.00902219
v -0.00000000 -0.01658393 0.00558778
v 0.00300000 -0.01658393 0.00558778
v 0.00300000 -0.01739741 0.00189208
v -0.00000000 -0.00965445 -0.00666648
v -0.00000000 0.00988220 -0.00581648
v -0.00000000 -0.00988220 -0.00751648
v -0.00000000 0.00965445 -0.00666648
v -0.00000000 -0.01050445 -0.00813872
v -0.00000000 -0.01135445 -0.00836648
v -0.00000000 -0.01282669 -0.00751648
v -0.00000000 0.01050445 -0.00813872
v -0.00000000 0.00988220 -0.00751648
v -0.00000000 0.01220445 -0.00813872
v -0.00000000 -0.01220445 -0.00519424
v -0.00000000 -0.01135445 -0.00496648
v -0.00000000 -0.01305445 -0.00666648
v -0.00000000 -0.01282669 -0.00581648
v -0.00000000 -0.01220445 -0.00813872
v -0.00000000 0.01135445 -0.00836648
v -0.00000000 0.01282669 -0.00751648
v -0.00000000 0.01305445 -0.00666648
v -0.00000000 0.01282669 -0.00581648
v -0.00000000 0.01220445 -0.00519424
v -0.00000000 -0.00170000 0.01300000
v -0.00000000 -0.00147224 0.01215000
v -0.00000000 -0.01050445 -0.00519424
v -0.00000000 -0.00085000 0.01152776
v -0.00000000 0.00000000 0.01130000
v -0.00000000 0.00085000 0.01152776
v -0.00000000 0.01135445 -0.00496648
v -0.00000000 0.00147224 0.01215000
v -0.00000000 -0.00988220 -0.00581648
v -0.00000000 0.01050445 -0.00519424
v -0.00000000 -0.00147224 0.01385000
v -0.00000000 -0.00085000 0.01447224
v -0.00000000 0.00000000 0.01470000
v -0.00000000 0.00085000 0.01447224
v -0.00000000 0.00147224 0.01385000
v -0.00000000 0.00170000 0.01300000
v 0.00900000 0.02800000 0.03500000
v 0.00900000 -0.02800000 0.03500000
v 0.00900000 0.01135445 -0.00341648
v 0.00900000 0.01286480 -0.00378875
v 0.00900000 -0.00919930 -0.00909914
v 0.00900000 -0.01057667 -0.00982204
v 0.00900000 0.00831564 -0.00781894
v 0.00900000 0.00984410 -0.00378875
v 0.00900000 0.00215515 0.01056734
v 0.00900000 -0.00831564 -0.00781894
v 0.00900000 -0.01213222 -0.00982204
v 0.00900000 -0.01350959 -0.00909914
v 0.00900000 0.00151035 0.01587773
v 0.00900000 0.00267470 0.01484621
v 0.00900000 0.00322630 0.01339174
v 0.00900000 0.00303880 0.01184753
v 0.00900000 0.00867975 -0.00482027
v 0.00900000 -0.00077778 0.00984444
v 0.00900000 -0.00215515 0.01056734
v 0.00900000 -0.00322630 0.01339174
v 0.00900000 -0.00267470 0.01484621
v 0.00900000 -0.00151035 0.01587773
v 0.00900000 0.00000000 0.01625000
v 0.00900000 -0.01286480 -0.00378875
v 0.00900000 -0.01135445 -0.00341648
v 0.00900000 -0.00984410 -0.00378875
v 0.00900000 -0.00867975 -0.00482027
v 0.00900000 -0.00812814 -0.00627473
v 0.00900000 -0.01439325 -0.00781894
v 0.00900000 -0.01458075 -0.00627473
v 0.00900000 -0.01402914 -0.00482027
v 0.00900000 -0.00303880 0.01184753
v 0.00900000 0.01402914 -0.00482027
v 0.00900000 0.01458075 -0.00627473
v 0.00900000 0.01439325 -0.00781894
v 0.00900000 0.01350959 -0.00909914
v 0.00900000 0.01213222 -0.00982204
v 0.00900000 0.01057667 -0.00982204
v 0.00900000 0.00919930 -0.00909914
v 0.00900000 0.00077778 0.00984444
v 0.00900000 0.00812814 -0.00627473
v 0.00580000 0.00000000 0.01470000
v 0.00580000 -0.00085000 0.01447224
v 0.00580000 -0.00147224 0.01385000
v 0.00580000 -0.00170000 0.01300000
v 0.00580000 -0.00147224 0.01215000
v 0.00580000 -0.00085000 0.01152776
v 0.00580000 0.00000000 0.01130000
v 0.00580000 0.00085000 0.01152776
v 0.00580000 0.00147224 0.01215000
v 0.00580000 0.00170000 0.01300000
v 0.00580000 0.00147224 0.01385000
v 0.00580000 0.00085000 0.01447224
v 0.00580000 -0.00215515 0.01056734
v 0.00580000 -0.00077778 0.00984444
v 0.00580000 0.00077778 0.00984444
v 0.00580000 0.00215515 0.01056734
v 0.00580000 0.00303880 0.01184753
v 0.00580000 0.00322630 0.01339174
v 0.00580000 0.00267470 0.01484621
v 0.00580000 0.00151035 0.01587773
v 0.00580000 0.00000000 0.01625000
v 0.00580000 -0.00151035 0.01587773
v 0.00580000 -0.00267470 0.01484621
v 0.00580000 -0.00322630 0.01339174
v 0.00580000 -0.00303880 0.01184753
v 0.00580000 -0.01135445 -0.00496648
v 0.00580000 -0.01220445 -0.00519424
v 0.00580000 -0.01282669 -0.00581648
v 0.00580000 -0.01305445 -0.00666648
v 0.00580000 -0.01282669 -0.00751648
v 0.00580000 -0.01220445 -0.00813872
v 0.00580000 -0.01135445 -0.00836648
v 0.00580000 -0.01050445 -0.00813872
v 0.00580000 -0.00988220 -0.00751648
v 0.00580000 -0.00965445 -0.00666648
v 0.00580000 -0.00988220 -0.00581648
v 0.00580000 -0.01050445 -0.00519424
v 0.00580000 -0.01350959 -0.00909914
v 0.00580000 -0.01213222 -0.00982204
v 0.00580000 -0.01057667 -0.00982204
v 0.00580000 -0.00919930 -0.00909914
v 0.00580000 -0.00831564 -0.00781894
v 0.00580000 -0.00812814 -0.00627473
v 0.00580000 -0.00867975 -0.00482027
v 0.00580000 -0.00984410 -0.00378875
v 0.00580000 -0.01135445 -0.00341648
v 0.00580000 -0.01286480 -0.00378875
v 0.00580000 -0.01402914 -0.00482027
v 0.00580000 -0.01458075 -0.00627473
v 0.00580000 -0.01439325 -0.00781894
v 0.00580000 0.01135445 -0.00496648
v 0.00580000 0.01050445 -0.00519424
v 0.00580000 0.00988220 -0.00581648
v 0.00580000 0.00965445 -0.00666648
v 0.00580000 0.00988220 -0.00751648
v 0.00580000 0.01050445 -0.00813872
v 0.00580000 0.01135445 -0.00836648
v 0.00580000 0.01220445 -0.00813872
v 0.00580000 0.01282669 -0.00751648
v 0.00580000 0.01305445 -0.00666648
v 0.00580000 0.01282669 -0.00581648
v 0.00580000 0.01220445 -0.00519424
v 0.00580000 0.00919930 -0.00909914
v 0.00580000 0.01057667 -0.00982204
v 0.00580000 0.01213222 -0.00982204
v 0.00580000 0.01350959 -0.00909914
v 0.00580000 0.01439325 -0.00781894
v 0.00580000 0.01458075 -0.00627473
v 0.00580000 0.01402914 -0.00482027
v 0.00580000 0.01286480 -0.00378875
v 0.00580000 0.01135445 -0.00341648
v 0.00580000 0.00984410 -0.00378875
v 0.00580000 0.00867975 -0.00482027
v 0.00580000 0.00812814 -0.00627473
v 0.00580000 0.00831564 -0.00781894
v 0.00725000 -0.01600000 0.03200000
v 0.00600000 -0.01725000 0.03200000
v 0.00537500 -0.01708253 0.03200000
v 0.00708253 -0.01662500 0.03200000
v 0.00662500 -0.01708253 0.03200000
v 0.00708253 0.01662500 0.03200000
v 0.00725000 0.01600000 0.03200000
v 0.00708253 -0.00062500 0.03200000
v 0.00600000 -0.01475000 0.03200000
v 0.00725000 0.00000000 0.03200000
v 0.00662500 -0.01491747 0.03200000
v 0.00708253 -0.01537500 0.03200000
v 0.00600000 0.01725000 0.03200000
v 0.00662500 0.01708253 0.03200000
v 0.00708253 0.01537500 0.03200000
v 0.00600000 0.00125000 0.03200000
v 0.00662500 0.00108253 0.03200000
v 0.00708253 0.00062500 0.03200000
v 0.00491747 -0.01662500 0.03200000
v 0.00475000 -0.01600000 0.03200000
v 0.00491747 -0.01537500 0.03200000
v 0.00475000 0.00000000 0.03200000
v 0.00537500 0.01708253 0.03200000
v 0.00491747 0.01662500 0.03200000
v 0.00475000 0.01600000 0.03200000
v 0.00662500 -0.00108253 0.03200000
v 0.00600000 -0.00125000 0.03200000
v 0.00537500 -0.01491747 0.03200000
v 0.00537500 -0.00108253 0.03200000
v 0.00491747 -0.00062500 0.03200000
v 0.00491747 0.00062500 0.03200000
v 0.00537500 0.00108253 0.03200000
v 0.00491747 0.01537500 0.03200000
v 0.00662500 0.01491747 0.03200000
v 0.00600000 0.01475000 0.03200000
v 0.00537500 0.01491747 0.03200000
v 0.00600000 0.01600000 0.02274892
v 0.00491747 0.01537500 0.02350000
v 0.00537500 0.01491747 0.02350000
v 0.00475000 0.01600000 0.02350000
v 0.00662500 0.01491747 0.02350000
v 0.00708253 0.01537500 0.02350000
v 0.00600000 0.01475000 0.02350000
v 0.00708253 0.01662500 0.02350000
v 0.00662500 0.01708253 0.02350000
v 0.00725000 0.01600000 0.02350000
v 0.00537500 0.01708253 0.02350000
v 0.00491747 0.01662500 0.02350000
v 0.00600000 0.01725000 0.02350000
v 0.00600000 -0.01600000 0.02274892
v 0.00491747 -0.01662500 0.02350000
v 0.00537500 -0.01708253 0.02350000
v 0.00475000 -0.01600000 0.02350000
v 0.00662500 -0.01708253 0.02350000
v 0.00708253 -0.01662500 0.02350000
v 0.00600000 -0.01725000 0.02350000
v 0.00708253 -0.01537500 0.02350000
v 0.00662500 -0.01491747 0.02350000
v 0.00725000 -0.01600000 0.02350000
v 0.00537500 -0.01491747 0.02350000
v 0.00491747 -0.01537500 0.02350000
v 0.00600000 -0.01475000 0.02350000
v 0.00600000 0.00000000 0.02274892
v 0.00491747 -0.00062500 0.02350000
v 0.00537500 -0.00108253 0.02350000
v 0.00475000 0.00000000 0.02350000
v 0.00662500 -0.00108253 0.02350000
v 0.00708253 -0.00062500 0.02350000
v 0.00600000 -0.00125000 0.02350000
v 0.00708253 0.00062500 0.02350000
v 0.00662500 0.00108253 0.02350000
v 0.00725000 0.00000000 0.02350000
v 0.00537500 0.00108253 0.02350000
v 0.00491747 0.00062500 0.02350000
v 0.00600000 0.00125000 0.02350000
v 0.00370000 0.02000000 -0.03200000
v 0.00400814 0.02115000 -0.03200000
v 0.00485000 0.02199186 -0.03200000
v 0.00600000 0.02230000 -0.03200000
v 0.00715000 0.02199186 -0.03200000
v 0.00799186 0.02115000 -0.03200000
v 0.00830000 0.02000000 -0.03200000
v 0.00370000 -0.02000000 -0.03200000
v 0.00830000 -0.02000000 -0.03200000
v 0.00799186 -0.02115000 -0.03200000
v 0.00715000 -0.02199186 -0.03200000
v 0.00600000 -0.02230000 -0.03200000
v 0.00485000 -0.02199186 -0.03200000
v 0.00400814 -0.02115000 -0.03200000
v 0.00600000 -0.01725000 -0.03200000
v 0.00662500 -0.01708253 -0.03200000
v 0.00537500 -0.01708253 -0.03200000
v 0.00491747 -0.01662500 -0.03200000
v 0.00491747 -0.01537500 -0.03200000
v 0.00491747 -0.00062500 -0.03200000
v 0.00537500 -0.00108253 -0.03200000
v 0.00662500 0.01491747 -0.03200000
v 0.00725000 0.00000000 -0.03200000
v 0.00600000 0.01475000 -0.03200000
v 0.00708253 0.00062500 -0.03200000
v 0.00537500 0.01491747 -0.03200000
v 0.00662500 0.00108253 -0.03200000
v 0.00491747 0.01537500 -0.03200000
v 0.00475000 0.01600000 -0.03200000
v 0.00708253 -0.00062500 -0.03200000
v 0.00708253 -0.01537500 -0.03200000
v 0.00662500 -0.00108253 -0.03200000
v 0.00662500 -0.01491747 -0.03200000
v 0.00600000 -0.00125000 -0.03200000
v 0.00600000 -0.01475000 -0.03200000
v 0.00537500 -0.01491747 -0.03200000
v 0.00725000 -0.01600000 -0.03200000
v 0.00708253 -0.01662500 -0.03200000
v 0.00662500 0.01708253 -0.03200000
v 0.00600000 0.01725000 -0.03200000
v 0.00475000 -0.01600000 -0.03200000
v 0.00475000 0.00000000 -0.03200000
v 0.00708253 0.01537500 -0.03200000
v 0.00725000 0.01600000 -0.03200000
v 0.00708253 0.01662500 -0.03200000
v 0.00537500 0.01708253 -0.03200000
v 0.00491747 0.01662500 -0.03200000
v 0.00600000 0.00125000 -0.03200000
v 0.00537500 0.00108253 -0.03200000
v 0.00491747 0.00062500 -0.03200000
v 0.00600000 0.01600000 -0.02274892
v 0.00708253 0.01537500 -0.02350000
v 0.00662500 0.01491747 -0.02350000
v 0.00725000 0.01600000 -0.02350000
v 0.00537500 0.01491747 -0.02350000
v 0.00491747 0.01537500 -0.02350000
v 0.00600000 0.01475000 -0.02350000
v 0.00491747 0.01662500 -0.02350000
v 0.00537500 0.01708253 -0.02350000
v 0.00475000 0.01600000 -0.02350000
v 0.00662500 0.01708253 -0.02350000
v 0.00708253 0.01662500 -0.02350000
v 0.00600000 0.01725000 -0.02350000
v 0.00600000 -0.01600000 -0.02274892
v 0.00708253 -0.01662500 -0.02350000
v 0.00662500 -0.01708253 -0.02350000
v 0.00725000 -0.01600000 -0.02350000
v 0.00537500 -0.01708253 -0.02350000
v 0.00491747 -0.01662500 -0.02350000
v 0.00600000 -0.01725000 -0.02350000
v 0.00491747 -0.01537500 -0.02350000
v 0.00537500 -0.01491747 -0.02350000
v 0.00475000 -0.01600000 -0.02350000
v 0.00662500 -0.01491747 -0.02350000
v 0.00708253 -0.01537500 -0.02350000
v 0.00600000 -0.01475000 -0.02350000
v 0.00600000 0.00000000 -0.02274892
v 0.00708253 -0.00062500 -0.02350000
v 0.00662500 -0.00108253 -0.02350000
v 0.00725000 0.00000000 -0.02350000
v 0.00537500 -0.00108253 -0.02350000
v 0.00491747 -0.00062500 -0.02350000
v 0.00600000 -0.00125000 -0.02350000
v 0.00491747 0.00062500 -0.02350000
v 0.00537500 0.00108253 -0.02350000
v 0.00475000 0.00000000 -0.02350000
v 0.00662500 0.00108253 -0.02350000
v 0.00708253 0.00062500 -0.02350000
v 0.00600000 0.00125000 -0.02350000
v 0.00600000 0.01925000 -0.03700000
v 0.00600000 0.01925000 -0.04000000
v 0.00741012 0.01892815 -0.03700000
v 0.00741012 0.01892815 -0.04000000
v 0.00854095 0.01802634 -0.03700000
v 0.00854095 0.01802634 -0.04000000
v 0.00916852 0.01672319 -0.03700000
v 0.00916852 0.01672319 -0.04000000
v 0.00916852 0.01527681 -0.03700000
v 0.00916852 0.01527681 -0.04000000
v 0.00854095 0.01397366 -0.03700000
v 0.00854095 0.01397366 -0.04000000
v 0.00741012 0.01307185 -0.03700000
v 0.00741012 0.01307185 -0.04000000
v 0.00600000 0.01275000 -0.03700000
v 0.00600000 0.01275000 -0.04000000
v 0.00600000 -0.01275000 -0.03700000
v 0.00600000 -0.01275000 -0.04000000
v 0.00741012 -0.01307185 -0.03700000
v 0.00741012 -0.01307185 -0.04000000
v 0.00854095 -0.01397366 -0.03700000
v 0.00854095 -0.01397366 -0.04000000
v 0.00916852 -0.01527681 -0.03700000
v 0.00916852 -0.01527681 -0.04000000
v 0.00916852 -0.01672319 -0.03700000
v 0.00916852 -0.01672319 -0.04000000
v 0.00854095 -0.01802634 -0.03700000
v 0.00854095 -0.01802634 -0.04000000
v 0.00741012 -0.01892815 -0.03700000
v 0.00741012 -0.01892815 -0.04000000
v 0.00600000 -0.01925000 -0.03700000
v 0.00600000 -0.01925000 -0.04000000
v 0.00600000 0.00325000 -0.03700000
v 0.00600000 0.00325000 -0.04000000
v 0.00741012 0.00292815 -0.03700000
v 0.00741012 0.00292815 -0.04000000
v 0.00854095 0.00202634 -0.03700000
v 0.00854095 0.00202634 -0.04000000
v 0.00916852 0.00072319 -0.03700000
v 0.00916852 0.00072319 -0.04000000
v 0.00916852 -0.00072319 -0.03700000
v 0.00916852 -0.00072319 -0.04000000
v 0.00854095 -0.00202634 -0.03700000
v 0.00854095 -0.00202634 -0.04000000
v 0.00741012 -0.00292815 -0.03700000
v 0.00741012 -0.00292815 -0.04000000
v 0.00600000 -0.00325000 -0.03700000
v 0.00600000 -0.00325000 -0.04000000
v 0.05425000 0.00000000 -0.04000000
v 0.05387773 0.00151035 -0.04000000
v 0.06514321 0.00687359 -0.04000000
v 0.06364165 0.01124747 -0.04000000
v 0.05132652 0.02462526 -0.04000000
v 0.05519795 0.02209593 -0.04000000
v 0.03437773 0.01276868 -0.04000000
v 0.05860027 0.01896388 -0.04000000
v 0.03475000 0.01125833 -0.04000000
v 0.06144066 0.01531455 -0.04000000
v 0.06590436 0.00231222 -0.04000000
v 0.06590436 -0.00231222 -0.04000000
v 0.05387773 -0.00151035 -0.04000000
v 0.06514321 -0.00687359 -0.04000000
v 0.05284621 -0.00267470 -0.04000000
v 0.06364165 -0.01124747 -0.04000000
v 0.05139174 -0.00322630 -0.04000000
v 0.04984753 -0.00303880 -0.04000000
v 0.03475000 -0.01125833 -0.04000000
v 0.04856734 -0.00215515 -0.04000000
v 0.03334621 0.00858363 -0.04000000
v 0.04784444 -0.00077778 -0.04000000
v 0.04784444 0.00077778 -0.04000000
v 0.04709158 0.02648288 -0.04000000
v 0.03334621 0.01393303 -0.04000000
v 0.04260865 0.02761812 -0.04000000
v 0.03800000 0.02800000 -0.04000000
v 0.03189174 0.01448463 -0.04000000
v 0.00300000 0.02800000 -0.04000000
v 0.03034754 0.01429713 -0.04000000
v 0.02906734 0.01341348 -0.04000000
v 0.00387868 0.00412868 -0.04000000
v 0.00322836 0.00510195 -0.04000000
v 0.00300000 0.00975000 -0.04000000
v 0.00322836 0.01089805 -0.04000000
v 0.00387868 0.01187132 -0.04000000
v 0.02834444 0.01048055 -0.04000000
v 0.02834444 0.01203611 -0.04000000
v 0.05519795 -0.02209593 -0.04000000
v 0.03437773 -0.01276868 -0.04000000
v 0.05860027 -0.01896388 -0.04000000
v 0.06144066 -0.01531455 -0.04000000
v 0.03189174 -0.00803203 -0.04000000
v 0.03034754 -0.00821953 -0.04000000
v 0.03034754 0.00821953 -0.04000000
v 0.02906734 -0.00910318 -0.04000000
v 0.02834444 -0.01048055 -0.04000000
v 0.00300000 0.00625000 -0.04000000
v 0.00485195 0.01252164 -0.04000000
v 0.00485195 -0.01252164 -0.04000000
v 0.02906734 0.00910318 -0.04000000
v 0.00485195 0.00347836 -0.04000000
v 0.00300000 -0.02225000 -0.04000000
v 0.00322836 -0.02110195 -0.04000000
v 0.00387868 -0.02012868 -0.04000000
v 0.05132652 -0.02462526 -0.04000000
v 0.04709158 -0.02648288 -0.04000000
v 0.03334621 -0.01393303 -0.04000000
v 0.04260865 -0.02761812 -0.04000000
v 0.03189174 -0.01448463 -0.04000000
v 0.03800000 -0.02800000 -0.04000000
v 0.03034754 -0.01429713 -0.04000000
v 0.00300000 -0.02800000 -0.04000000
v 0.02906734 -0.01341348 -0.04000000
v 0.03437773 -0.00974798 -0.04000000
v 0.03334621 -0.00858363 -0.04000000
v 0.03189174 0.00803203 -0.04000000
v 0.04856734 0.00215515 -0.04000000
v 0.03437773 0.00974798 -0.04000000
v 0.00485195 -0.01947836 -0.04000000
v 0.02834444 -0.01203611 -0.04000000
v 0.05284621 0.00267470 -0.04000000
v 0.05139174 0.00322630 -0.04000000
v 0.04984753 0.00303880 -0.04000000
v 0.00485195 0.01947836 -0.04000000
v 0.00387868 0.02012868 -0.04000000
v 0.00300000 -0.00625000 -0.04000000
v 0.00322836 -0.00510195 -0.04000000
v 0.00387868 -0.00412868 -0.04000000
v 0.00300000 0.02225000 -0.04000000
v 0.00322836 0.02110195 -0.04000000
v 0.00322836 -0.01089805 -0.04000000
v 0.00300000 -0.00975000 -0.04000000
v 0.00485195 -0.00347836 -0.04000000
v 0.00387868 -0.01187132 -0.04000000
v 0.04709158 -0.02648288 -0.03500000
v 0.05132652 -0.02462526 -0.03500000
v 0.02135651 0.00540780 -0.03500000
v 0.02284456 0.00875000 -0.03500000
v 0.03800000 -0.02800000 -0.03500000
v 0.02499497 0.01170979 -0.03500000
v 0.02771376 0.01415780 -0.03500000
v 0.03088211 0.01598705 -0.03500000
v 0.03800000 0.02800000 -0.03500000
v 0.02284456 -0.00875000 -0.03500000
v 0.02135651 -0.00540780 -0.03500000
v 0.02059587 -0.00182925 -0.03500000
v 0.02059587 0.00182925 -0.03500000
v 0.04260865 -0.02761812 -0.03500000
v 0.05464349 0.00540780 -0.03500000
v 0.05540413 0.00182925 -0.03500000
v 0.06590436 0.00231222 -0.03500000
v 0.06590436 -0.00231222 -0.03500000
v 0.05540413 -0.00182925 -0.03500000
v 0.06514321 -0.00687359 -0.03500000
v 0.05464349 -0.00540780 -0.03500000
v 0.06364165 -0.01124747 -0.03500000
v 0.05315544 -0.00875000 -0.03500000
v 0.06144066 -0.01531455 -0.03500000
v 0.06514321 0.00687359 -0.03500000
v 0.06364165 0.01124747 -0.03500000
v 0.05315544 0.00875000 -0.03500000
v 0.06144066 0.01531455 -0.03500000
v 0.05100503 0.01170979 -0.03500000
v 0.05860027 0.01896388 -0.03500000
v 0.04828624 0.01415780 -0.03500000
v 0.05519795 0.02209593 -0.03500000
v 0.04511789 0.01598705 -0.03500000
v 0.05860027 -0.01896388 -0.03500000
v 0.05100503 -0.01170979 -0.03500000
v 0.05519795 -0.02209593 -0.03500000
v 0.04828624 -0.01415780 -0.03500000
v 0.04511789 -0.01598705 -0.03500000
v 0.04163845 -0.01711758 -0.03500000
v 0.03800000 -0.01750000 -0.03500000
v 0.03436154 -0.01711758 -0.03500000
v 0.03088211 -0.01598705 -0.03500000
v 0.02771376 -0.01415780 -0.03500000
v 0.02499497 -0.01170979 -0.03500000
v 0.03436154 0.01711758 -0.03500000
v 0.03800000 0.01750000 -0.03500000
v 0.04260865 0.02761812 -0.03500000
v 0.04163845 0.01711758 -0.03500000
v 0.04709158 0.02648288 -0.03500000
v 0.05132652 0.02462526 -0.03500000
v 0.00300000 0.00975000 -0.03700000
v 0.00300000 0.02225000 -0.03700000
v 0.00300000 0.00625000 -0.03700000
v 0.00300000 -0.00625000 -0.03700000
v 0.00300000 -0.00975000 -0.03700000
v 0.00300000 -0.02225000 -0.03700000
v 0.03436154 -0.01711758 -0.03200000
v 0.03088211 -0.01598705 -0.03200000
v 0.02771376 -0.01415780 -0.03200000
v 0.02499497 -0.01170979 -0.03200000
v 0.02284456 -0.00875000 -0.03200000
v 0.02135651 -0.00540780 -0.03200000
v 0.02059587 -0.00182925 -0.03200000
v 0.02059587 0.00182925 -0.03200000
v 0.02135651 0.00540780 -0.03200000
v 0.02284456 0.00875000 -0.03200000
v 0.02499497 0.01170979 -0.03200000
v 0.02771376 0.01415780 -0.03200000
v 0.03088211 0.01598705 -0.03200000
v 0.03436154 0.01711758 -0.03200000
v 0.03800000 0.01750000 -0.03200000
v 0.04163845 0.01711758 -0.03200000
v 0.04511789 0.01598705 -0.03200000
v 0.04828624 0.01415780 -0.03200000
v 0.05100503 0.01170979 -0.03200000
v 0.05315544 0.00875000 -0.03200000
v 0.05464349 0.00540780 -0.03200000
v 0.05540413 0.00182925 -0.03200000
v 0.05540413 -0.00182925 -0.03200000
v 0.05464349 -0.00540780 -0.03200000
v 0.05315544 -0.00875000 -0.03200000
v 0.05100503 -0.01170979 -0.03200000
v 0.04828624 -0.01415780 -0.03200000
v 0.04511789 -0.01598705 -0.03200000
v 0.04163845 -0.01711758 -0.03200000
v 0.03800000 -0.01750000 -0.03200000
v 0.05015000 0.00147224 -0.03200000
v 0.05100000 0.00170000 -0.03200000
v 0.05185000 0.00147224 -0.03200000
v 0.04930000 0.00000000 -0.03200000
v 0.04952776 0.00085000 -0.03200000
v 0.03320000 0.01125833 -0.03200000
v 0.05247224 0.00085000 -0.03200000
v 0.03297224 0.01210833 -0.03200000
v 0.03235000 0.01273057 -0.03200000
v 0.03150000 0.01295833 -0.03200000
v 0.03065000 0.01273057 -0.03200000
v 0.03297224 -0.01210833 -0.03200000
v 0.03235000 -0.01273057 -0.03200000
v 0.03150000 -0.01295833 -0.03200000
v 0.05270000 0.00000000 -0.03200000
v 0.05247224 -0.00085000 -0.03200000
v 0.05185000 -0.00147224 -0.03200000
v 0.05100000 -0.00170000 -0.03200000
v 0.05015000 -0.00147224 -0.03200000
v 0.03320000 -0.01125833 -0.03200000
v 0.03297224 -0.01040833 -0.03200000
v 0.04952776 -0.00085000 -0.03200000
v 0.03235000 -0.00978609 -0.03200000
v 0.03150000 -0.00955833 -0.03200000
v 0.03297224 0.01040833 -0.03200000
v 0.03065000 -0.00978609 -0.03200000
v 0.03002776 -0.01040833 -0.03200000
v 0.03065000 -0.01273057 -0.03200000
v 0.03002776 -0.01210833 -0.03200000
v 0.02980000 -0.01125833 -0.03200000
v 0.03002776 0.01040833 -0.03200000
v 0.03065000 0.00978609 -0.03200000
v 0.03150000 0.00955833 -0.03200000
v 0.03235000 0.00978609 -0.03200000
v 0.03002776 0.01210833 -0.03200000
v 0.02980000 0.01125833 -0.03200000
v 0.05270000 0.00000000 -0.03680000
v 0.05247224 -0.00085000 -0.03680000
v 0.05185000 -0.00147224 -0.03680000
v 0.05100000 -0.00170000 -0.03680000
v 0.05015000 -0.00147224 -0.03680000
v 0.04952776 -0.00085000 -0.03680000
v 0.04930000 0.00000000 -0.03680000
v 0.04952776 0.00085000 -0.03680000
v 0.05015000 0.00147224 -0.03680000
v 0.05100000 0.00170000 -0.03680000
v 0.05185000 0.00147224 -0.03680000
v 0.05247224 0.00085000 -0.03680000
v 0.04856734 -0.00215515 -0.03680000
v 0.04784444 -0.00077778 -0.03680000
v 0.04784444 0.00077778 -0.03680000
v 0.04856734 0.00215515 -0.03680000
v 0.04984753 0.00303880 -0.03680000
v 0.05139174 0.00322630 -0.03680000
v 0.05284621 0.00267470 -0.03680000
v 0.05387773 0.00151035 -0.03680000
v 0.05425000 0.00000000 -0.03680000
v 0.05387773 -0.00151035 -0.03680000
v 0.05284621 -0.00267470 -0.03680000
v 0.05139174 -0.00322630 -0.03680000
v 0.04984753 -0.00303880 -0.03680000
v 0.03320000 -0.01125833 -0.03680000
v 0.03297224 -0.01210833 -0.03680000
v 0.03235000 -0.01273057 -0.03680000
v 0.03150000 -0.01295833 -0.03680000
v 0.03065000 -0.01273057 -0.03680000
v 0.03002776 -0.01210833 -0.03680000
v 0.02980000 -0.01125833 -0.03680000
v 0.03002776 -0.01040833 -0.03680000
v 0.03065000 -0.00978609 -0.03680000
v 0.03150000 -0.00955833 -0.03680000
v 0.03235000 -0.00978609 -0.03680000
v 0.03297224 -0.01040833 -0.03680000
v 0.02906734 -0.01341348 -0.03680000
v 0.02834444 -0.01203611 -0.03680000
v 0.02834444 -0.01048055 -0.03680000
v 0.02906734 -0.00910318 -0.03680000
v 0.03034754 -0.00821953 -0.03680000
v 0.03189174 -0.00803203 -0.03680000
v 0.03334621 -0.00858363 -0.03680000
v 0.03437773 -0.00974798 -0.03680000
v 0.03475000 -0.01125833 -0.03680000
v 0.03437773 -0.01276868 -0.03680000
v 0.03334621 -0.01393303 -0.03680000
v 0.03189174 -0.01448463 -0.03680000
v 0.03034754 -0.01429713 -0.03680000
v 0.03320000 0.01125833 -0.03680000
v 0.03297224 0.01040833 -0.03680000
v 0.03235000 0.00978609 -0.03680000
v 0.03150000 0.00955833 -0.03680000
v 0.03065000 0.00978609 -0.03680000
v 0.03002776 0.01040833 -0.03680000
v 0.02980000 0.01125833 -0.03680000
v 0.03002776 0.01210833 -0.03680000
v 0.03065000 0.01273057 -0.03680000
v 0.03150000 0.01295833 -0.03680000
v 0.03235000 0.01273057 -0.03680000
v 0.03297224 0.01210833 -0.03680000
v 0.02906734 0.00910318 -0.03680000
v 0.02834444 0.01048055 -0.03680000
v 0.02834444 0.01203611 -0.03680000
v 0.02906734 0.01341348 -0.03680000
v 0.03034754 0.01429713 -0.03680000
v 0.03189174 0.01448463 -0.03680000
v 0.03334621 0.01393303 -0.03680000
v 0.03437773 0.01276868 -0.03680000
v 0.03475000 0.01125833 -0.03680000
v 0.03437773 0.00974798 -0.03680000
v 0.03334621 0.00858363 -0.03680000
v 0.03189174 0.00803203 -0.03680000
v 0.03034754 0.00821953 -0.03680000
v 0.00600000 -0.01430000 -0.03200000
v 0.00770000 0.00000000 -0.03200000
v 0.00747224 -0.00085000 -0.03200000
v 0.00685000 -0.00147224 -0.03200000
v 0.00600000 -0.00170000 -0.03200000
v 0.00515000 -0.01452776 -0.03200000
v 0.00515000 -0.00147224 -0.03200000
v 0.00600000 0.01770000 -0.03200000
v 0.00685000 0.01747224 -0.03200000
v 0.00747224 0.01685000 -0.03200000
v 0.00770000 0.01600000 -0.03200000
v 0.00747224 0.01515000 -0.03200000
v 0.00685000 0.01452776 -0.03200000
v 0.00600000 0.00170000 -0.03200000
v 0.00600000 0.01430000 -0.03200000
v 0.00515000 0.00147224 -0.03200000
v 0.00515000 0.01452776 -0.03200000
v 0.00452776 0.01515000 -0.03200000
v 0.00430000 0.00000000 -0.03200000
v 0.00452776 0.00085000 -0.03200000
v 0.00430000 0.01600000 -0.03200000
v 0.00452776 0.01685000 -0.03200000
v 0.00515000 0.01747224 -0.03200000
v 0.00685000 0.00147224 -0.03200000
v 0.00747224 0.00085000 -0.03200000
v 0.00685000 -0.01452776 -0.03200000
v 0.00747224 -0.01515000 -0.03200000
v 0.00770000 -0.01600000 -0.03200000
v 0.00452776 -0.00085000 -0.03200000
v 0.00452776 -0.01515000 -0.03200000
v 0.00430000 -0.01600000 -0.03200000
v 0.00452776 -0.01685000 -0.03200000
v 0.00747224 -0.01685000 -0.03200000
v 0.00685000 -0.01747224 -0.03200000
v 0.00600000 -0.01770000 -0.03200000
v 0.00515000 -0.01747224 -0.03200000
v 0.00387868 0.01187132 -0.03700000
v 0.00322836 0.01089805 -0.03700000
v 0.00515000 0.01452776 -0.03700000
v 0.00322836 0.02110195 -0.03700000
v 0.00387868 0.02012868 -0.03700000
v 0.00515000 0.01747224 -0.03700000
v 0.00485195 0.01947836 -0.03700000
v 0.00600000 0.01770000 -0.03700000
v 0.00685000 0.01747224 -0.03700000
v 0.00747224 0.01685000 -0.03700000
v 0.00770000 0.01600000 -0.03700000
v 0.00747224 0.01515000 -0.03700000
v 0.00685000 0.01452776 -0.03700000
v 0.00600000 0.01430000 -0.03700000
v 0.00485195 0.01252164 -0.03700000
v 0.00452776 0.01685000 -0.03700000
v 0.00430000 0.01600000 -0.03700000
v 0.00452776 0.01515000 -0.03700000
v 0.00387868 -0.02012868 -0.03700000
v 0.00322836 -0.02110195 -0.03700000
v 0.00515000 -0.01747224 -0.03700000
v 0.00770000 -0.01600000 -0.03700000
v 0.00747224 -0.01685000 -0.03700000
v 0.00685000 -0.01747224 -0.03700000
v 0.00600000 -0.01770000 -0.03700000
v 0.00485195 -0.01947836 -0.03700000
v 0.00322836 -0.01089805 -0.03700000
v 0.00387868 -0.01187132 -0.03700000
v 0.00515000 -0.01452776 -0.03700000
v 0.00485195 -0.01252164 -0.03700000
v 0.00600000 -0.01430000 -0.03700000
v 0.00685000 -0.01452776 -0.03700000
v 0.00747224 -0.01515000 -0.03700000
v 0.00452776 -0.01515000 -0.03700000
v 0.00430000 -0.01600000 -0.03700000
v 0.00452776 -0.01685000 -0.03700000
v 0.00322836 0.00510195 -0.03700000
v 0.00387868 0.00412868 -0.03700000
v 0.00515000 0.00147224 -0.03700000
v 0.00485195 0.00347836 -0.03700000
v 0.00600000 0.00170000 -0.03700000
v 0.00685000 0.00147224 -0.03700000
v 0.00747224 0.00085000 -0.03700000
v 0.00770000 0.00000000 -0.03700000
v 0.00322836 -0.00510195 -0.03700000
v 0.00387868 -0.00412868 -0.03700000
v 0.00515000 -0.00147224 -0.03700000
v 0.00452776 0.00085000 -0.03700000
v 0.00430000 0.00000000 -0.03700000
v 0.00452776 -0.00085000 -0.03700000
v 0.00747224 -0.00085000 -0.03700000
v 0.00685000 -0.00147224 -0.03700000
v 0.00600000 -0.00170000 -0.03700000
v 0.00485195 -0.00347836 -0.03700000
f 1 2 3
f 3 2 4
f 3 4 5
f 5 4 6
f 5 6 7
f 7 6 8
f 7 8 9
f 9 8 10
f 9 10 11
f 11 10 12
f 11 12 13
f 13 12 14
f 13 14 15
f 15 14 16
f 17 18 19
f 19 18 20
f 19 20 21
f 21 20 22
f 21 22 23
f 23 22 24
f 23 24 25
f 25 24 26
f 25 26 27
f 27 26 28
f 27 28 29
f 29 28 30
f 29 30 31
f 31 30 32
f 33 34 35
f 35 34 36
f 35 36 37
f 37 36 38
f 37 38 39
f 39 38 40
f 39 40 41
f 41 40 42
f 41 42 43
f 43 42 44
f 43 44 45
f 45 44 46
f 45 46 47
f 47 46 48
f 49 50 51
f 51 50 52
f 51 52 53
f 54 55 56
f 57 58 59
f 59 58 60
f 59 60 61
f 50 62 52
f 52 62 63
f 52 63 64
f 64 63 65
f 64 65 66
f 52 67 53
f 53 67 68
f 53 68 69
f 53 70 55
f 71 72 73
f 73 72 74
f 70 53 75
f 75 53 69
f 75 69 60
f 60 69 76
f 60 76 61
f 54 77 55
f 55 77 78
f 55 78 53
f 53 78 79
f 53 79 80
f 81 82 83
f 83 82 84
f 83 84 73
f 73 84 85
f 85 86 73
f 73 86 87
f 73 87 71
f 66 65 88
f 88 65 73
f 88 73 89
f 89 73 74
f 89 74 57
f 57 74 90
f 57 90 58
f 79 91 80
f 80 91 92
f 80 92 93
f 93 92 84
f 93 84 94
f 94 84 82
f 56 95 54
f 54 95 96
f 54 96 97
f 97 96 71
f 97 71 98
f 98 71 87
f 46 44 99
f 100 101 16
f 8 102 103
f 104 105 106
f 106 105 16
f 106 16 107
f 107 16 101
f 16 14 100
f 100 14 12
f 100 12 108
f 108 12 10
f 109 110 111
f 44 42 99
f 99 42 40
f 99 40 112
f 112 40 38
f 113 111 24
f 103 114 8
f 8 114 115
f 8 115 116
f 117 118 119
f 119 118 120
f 119 120 2
f 116 121 8
f 8 121 122
f 8 122 10
f 10 122 123
f 10 123 108
f 124 125 126
f 127 128 126
f 126 128 129
f 126 129 124
f 110 130 111
f 111 130 131
f 111 131 38
f 38 131 132
f 38 132 112
f 18 133 134
f 135 136 137
f 137 136 48
f 137 48 138
f 138 48 120
f 8 139 140
f 141 142 102
f 102 142 143
f 102 143 144
f 144 143 125
f 144 125 145
f 145 125 124
f 111 146 109
f 109 146 147
f 109 147 127
f 127 147 148
f 127 148 128
f 24 22 113
f 113 22 20
f 113 20 149
f 149 20 18
f 149 18 150
f 150 18 134
f 150 134 151
f 120 48 2
f 2 48 46
f 2 46 4
f 4 46 99
f 4 99 6
f 6 99 152
f 6 152 8
f 8 152 153
f 8 153 139
f 154 155 156
f 156 155 157
f 156 157 34
f 34 157 32
f 34 32 36
f 36 32 30
f 36 30 38
f 38 30 28
f 38 28 111
f 111 28 26
f 111 26 24
f 158 159 160
f 160 159 32
f 160 32 161
f 161 32 157
f 140 162 8
f 8 162 163
f 8 163 102
f 102 163 164
f 102 164 141
f 165 166 167
f 167 166 168
f 167 168 169
f 170 171 172
f 172 171 173
f 173 171 174
f 174 171 175
f 174 175 176
f 177 178 179
f 179 178 180
f 170 181 171
f 171 181 182
f 171 182 168
f 168 182 183
f 168 183 169
f 177 184 178
f 178 184 185
f 178 185 165
f 165 185 186
f 165 186 166
f 187 188 189
f 186 190 166
f 166 190 191
f 166 191 192
f 192 191 193
f 189 194 187
f 187 194 195
f 187 195 193
f 193 195 196
f 193 196 192
f 197 198 188
f 188 198 199
f 188 199 189
f 200 201 202
f 202 201 203
f 202 203 204
f 203 205 204
f 204 205 206
f 204 206 197
f 197 206 207
f 197 207 198
f 208 209 200
f 200 209 210
f 200 210 201
f 211 212 208
f 208 212 213
f 208 213 209
f 178 214 180
f 180 214 215
f 180 215 216
f 216 215 176
f 216 176 217
f 217 176 175
f 217 175 218
f 218 175 219
f 218 219 211
f 211 219 220
f 211 220 212
f 101 100 171
f 171 100 175
f 166 113 168
f 168 113 149
f 107 101 221
f 221 101 171
f 221 171 222
f 223 138 120
f 168 149 150
f 150 224 168
f 168 224 225
f 168 225 171
f 120 222 223
f 223 222 171
f 223 171 226
f 226 171 225
f 226 225 157
f 157 225 161
f 175 100 108
f 175 108 219
f 219 108 123
f 219 123 220
f 220 123 122
f 220 122 212
f 212 122 121
f 212 121 213
f 213 121 116
f 213 116 209
f 209 116 115
f 209 115 210
f 210 115 114
f 210 114 201
f 201 114 103
f 201 103 203
f 203 103 102
f 203 102 205
f 205 102 144
f 205 144 206
f 206 144 145
f 206 145 207
f 207 145 124
f 207 124 198
f 198 124 129
f 198 129 199
f 199 129 128
f 199 128 189
f 189 128 148
f 189 148 194
f 194 148 147
f 194 147 195
f 195 147 146
f 195 146 196
f 196 146 111
f 196 111 192
f 192 111 113
f 192 113 166
f 143 204 125
f 125 204 197
f 125 197 126
f 126 197 188
f 126 188 127
f 127 188 187
f 127 187 109
f 109 187 193
f 109 193 110
f 110 193 191
f 110 191 130
f 130 191 190
f 130 190 131
f 131 190 186
f 131 186 132
f 132 186 185
f 132 185 112
f 112 185 184
f 112 184 99
f 99 184 177
f 99 177 152
f 152 177 179
f 152 179 153
f 153 179 180
f 153 180 139
f 139 180 216
f 139 216 140
f 140 216 217
f 140 217 162
f 162 217 218
f 162 218 163
f 163 218 211
f 163 211 164
f 164 211 208
f 164 208 141
f 141 208 200
f 141 200 142
f 142 200 202
f 142 202 143
f 143 202 204
f 73 181 170
f 73 170 83
f 83 170 172
f 83 172 81
f 81 172 173
f 81 173 82
f 82 173 174
f 82 174 94
f 94 174 176
f 94 176 93
f 93 176 215
f 93 215 80
f 53 80 214
f 214 80 215
f 53 214 178
f 53 178 51
f 51 178 165
f 51 165 49
f 49 165 167
f 49 167 50
f 50 167 169
f 50 169 62
f 62 169 183
f 62 183 63
f 63 183 182
f 63 182 65
f 73 65 181
f 181 65 182
f 227 228 229
f 228 221 230
f 230 221 222
f 231 9 232
f 232 9 11
f 232 11 233
f 233 11 13
f 233 13 234
f 234 13 15
f 234 15 229
f 229 15 235
f 229 235 227
f 230 236 237
f 237 236 238
f 237 238 239
f 239 238 1
f 239 1 240
f 240 1 3
f 240 3 241
f 241 3 5
f 241 5 231
f 231 5 7
f 231 7 9
f 237 242 230
f 230 242 243
f 230 243 228
f 228 243 244
f 228 244 229
f 87 243 98
f 98 243 242
f 98 242 97
f 97 242 237
f 97 237 54
f 54 237 239
f 54 239 77
f 77 239 240
f 77 240 78
f 78 240 241
f 78 241 79
f 79 241 231
f 79 231 91
f 91 231 232
f 91 232 92
f 92 232 233
f 92 233 84
f 84 233 234
f 84 234 85
f 85 234 229
f 85 229 86
f 86 229 244
f 86 244 87
f 87 244 243
f 245 225 246
f 246 225 224
f 247 245 248
f 249 250 246
f 246 250 251
f 246 251 245
f 245 251 252
f 245 252 248
f 253 25 254
f 254 25 27
f 254 27 255
f 255 27 29
f 255 29 256
f 256 29 31
f 256 31 248
f 248 31 257
f 248 257 247
f 246 258 249
f 249 258 259
f 249 259 260
f 260 259 17
f 260 17 261
f 261 17 19
f 261 19 262
f 262 19 21
f 262 21 253
f 253 21 23
f 253 23 25
f 88 251 66
f 66 251 250
f 66 250 64
f 64 250 249
f 64 249 52
f 52 249 260
f 52 260 67
f 67 260 261
f 67 261 68
f 68 261 262
f 68 262 69
f 69 262 253
f 69 253 76
f 76 253 254
f 76 254 61
f 61 254 255
f 61 255 59
f 59 255 256
f 59 256 57
f 57 256 248
f 57 248 89
f 89 248 252
f 89 252 88
f 88 252 251
f 263 264 265
f 264 223 266
f 266 223 226
f 267 41 268
f 268 41 43
f 268 43 269
f 269 43 45
f 269 45 270
f 270 45 47
f 270 47 265
f 265 47 271
f 265 271 263
f 272 273 266
f 266 273 274
f 266 274 264
f 264 274 275
f 264 275 265
f 266 276 272
f 272 276 277
f 272 277 278
f 278 277 33
f 278 33 279
f 279 33 35
f 279 35 280
f 280 35 37
f 280 37 267
f 267 37 39
f 267 39 41
f 74 274 90
f 90 274 273
f 90 273 58
f 58 273 272
f 58 272 60
f 60 272 278
f 60 278 75
f 75 278 279
f 75 279 70
f 70 279 280
f 70 280 55
f 55 280 267
f 55 267 56
f 56 267 268
f 56 268 95
f 95 268 269
f 95 269 96
f 96 269 270
f 96 270 71
f 71 270 265
f 71 265 72
f 72 265 275
f 72 275 74
f 74 275 274
f 224 150 151
f 224 151 246
f 246 151 134
f 246 134 258
f 258 134 133
f 258 133 259
f 259 133 18
f 259 18 17
f 31 32 159
f 31 159 257
f 257 159 158
f 257 158 247
f 247 158 160
f 247 160 245
f 245 160 161
f 245 161 225
f 226 157 155
f 226 155 266
f 266 155 154
f 266 154 276
f 276 154 156
f 276 156 277
f 277 156 34
f 277 34 33
f 47 48 136
f 47 136 271
f 271 136 135
f 271 135 263
f 263 135 137
f 263 137 264
f 264 137 138
f 264 138 223
f 222 120 118
f 222 118 230
f 230 118 117
f 230 117 236
f 236 117 119
f 236 119 238
f 238 119 2
f 238 2 1
f 15 16 105
f 15 105 235
f 235 105 104
f 235 104 227
f 227 104 106
f 227 106 228
f 228 106 107
f 228 107 221
f 281 282 283
f 282 281 284
f 284 281 285
f 284 285 286
f 287 288 289
f 289 288 290
f 289 290 291
f 291 290 292
f 283 293 281
f 281 293 294
f 281 294 289
f 289 294 295
f 289 295 287
f 292 296 291
f 291 296 297
f 291 297 285
f 285 297 298
f 285 298 286
f 299 300 301
f 301 300 302
f 300 303 302
f 302 303 304
f 302 304 305
f 305 304 306
f 305 306 307
f 307 306 308
f 307 308 309
f 309 308 310
f 309 310 311
f 311 310 312
f 311 312 313
f 313 312 314
f 313 314 315
f 315 314 316
f 315 316 317
f 317 316 318
f 317 318 319
f 319 318 320
f 319 320 321
f 321 320 322
f 321 322 323
f 323 322 324
f 323 324 325
f 325 324 326
f 325 326 327
f 327 326 328
f 327 328 329
f 329 328 330
f 329 330 331
f 331 330 332
f 331 332 333
f 333 332 334
f 333 334 335
f 335 334 336
f 335 336 337
f 337 336 338
f 337 338 339
f 339 338 340
f 339 340 341
f 341 340 342
f 341 342 343
f 343 342 344
f 343 344 345
f 345 344 346
f 345 346 347
f 347 346 348
f 347 348 349
f 349 348 350
f 349 350 351
f 351 350 352
f 351 352 353
f 353 352 354
f 353 354 355
f 355 354 356
f 355 356 357
f 357 356 299
f 357 299 358
f 358 299 301
f 359 360 361
f 361 360 362
f 361 362 363
f 363 362 364
f 308 306 365
f 366 318 367
f 367 318 316
f 326 324 368
f 369 299 370
f 370 299 356
f 370 356 354
f 365 306 371
f 371 306 304
f 371 304 372
f 372 304 303
f 372 303 369
f 369 303 300
f 369 300 299
f 365 373 308
f 308 373 364
f 308 364 310
f 310 364 362
f 310 362 312
f 312 362 367
f 312 367 314
f 314 367 316
f 368 324 374
f 374 324 322
f 374 322 366
f 366 322 320
f 366 320 318
f 368 375 326
f 326 375 376
f 326 376 328
f 328 376 377
f 328 377 330
f 330 377 378
f 354 379 370
f 370 379 380
f 370 380 381
f 380 382 381
f 381 382 383
f 381 383 384
f 385 334 378
f 378 334 332
f 378 332 330
f 384 386 381
f 381 386 334
f 381 334 387
f 387 334 385
f 387 385 359
f 359 385 388
f 359 388 360
f 354 352 379
f 379 352 350
f 379 350 389
f 389 350 348
f 389 348 390
f 390 348 346
f 390 346 391
f 391 346 344
f 391 344 392
f 392 344 342
f 392 342 393
f 393 342 340
f 393 340 394
f 394 340 338
f 394 338 386
f 386 338 336
f 386 336 334
f 291 171 289
f 289 171 395
f 281 396 285
f 285 396 168
f 305 307 285
f 285 307 309
f 285 309 311
f 351 168 349
f 349 168 347
f 311 313 285
f 285 313 315
f 285 315 291
f 315 317 291
f 291 317 319
f 291 319 321
f 351 353 168
f 168 353 355
f 168 355 357
f 357 358 168
f 168 358 301
f 168 301 285
f 285 301 302
f 285 302 305
f 321 323 291
f 291 323 325
f 291 325 327
f 327 329 291
f 291 329 331
f 291 331 171
f 347 168 345
f 345 168 171
f 345 171 343
f 331 333 171
f 171 333 335
f 171 335 337
f 337 339 171
f 171 339 341
f 171 341 343
f 395 397 398
f 399 400 401
f 402 397 403
f 399 401 404
f 289 400 281
f 281 400 405
f 281 405 406
f 407 408 395
f 395 408 409
f 395 409 397
f 397 409 410
f 397 410 403
f 411 412 413
f 414 415 396
f 396 415 416
f 396 416 395
f 395 416 417
f 395 417 407
f 418 419 396
f 396 419 420
f 396 420 411
f 411 420 421
f 411 421 422
f 406 423 281
f 281 423 424
f 281 424 396
f 396 424 425
f 396 425 418
f 411 413 396
f 396 413 426
f 396 426 414
f 398 427 395
f 395 427 428
f 395 428 289
f 289 428 429
f 289 429 430
f 430 431 289
f 289 431 432
f 289 432 400
f 400 432 433
f 400 433 401
f 402 403 411
f 411 403 434
f 411 434 412
f 404 401 422
f 422 401 435
f 422 435 411
f 391 436 390
f 390 436 437
f 390 437 389
f 389 437 438
f 389 438 379
f 379 438 439
f 379 439 380
f 380 439 440
f 380 440 382
f 382 440 441
f 382 441 383
f 383 441 442
f 383 442 384
f 384 442 443
f 384 443 386
f 386 443 444
f 386 444 394
f 394 444 445
f 394 445 393
f 393 445 446
f 393 446 392
f 392 446 447
f 392 447 391
f 391 447 436
f 448 449 442
f 442 449 450
f 442 450 443
f 443 450 451
f 443 451 444
f 444 451 452
f 444 452 445
f 445 452 453
f 445 453 446
f 446 453 454
f 446 454 447
f 447 454 455
f 447 455 436
f 436 455 456
f 436 456 437
f 437 456 457
f 437 457 438
f 438 457 458
f 438 458 439
f 439 458 459
f 439 459 440
f 440 459 460
f 440 460 441
f 441 460 448
f 441 448 442
f 456 417 457
f 457 417 416
f 457 416 458
f 458 416 415
f 458 415 459
f 459 415 414
f 459 414 460
f 460 414 426
f 460 426 448
f 448 426 413
f 448 413 449
f 449 413 412
f 449 412 450
f 450 412 434
f 450 434 451
f 451 434 403
f 451 403 452
f 452 403 410
f 452 410 453
f 453 410 409
f 453 409 454
f 454 409 408
f 454 408 455
f 455 408 407
f 455 407 456
f 456 407 417
f 370 461 369
f 369 461 462
f 369 462 372
f 372 462 463
f 372 463 371
f 371 463 464
f 371 464 365
f 365 464 465
f 365 465 373
f 373 465 466
f 373 466 364
f 364 466 467
f 364 467 363
f 363 467 468
f 363 468 361
f 361 468 469
f 361 469 359
f 359 469 470
f 359 470 387
f 387 470 471
f 387 471 381
f 381 471 472
f 381 472 370
f 370 472 461
f 473 474 467
f 467 474 475
f 467 475 468
f 468 475 476
f 468 476 469
f 469 476 477
f 469 477 470
f 470 477 478
f 470 478 471
f 471 478 479
f 471 479 472
f 472 479 480
f 472 480 461
f 461 480 481
f 461 481 462
f 462 481 482
f 462 482 463
f 463 482 483
f 463 483 464
f 464 483 484
f 464 484 465
f 465 484 485
f 465 485 466
f 466 485 473
f 466 473 467
f 481 419 482
f 482 419 418
f 482 418 483
f 483 418 425
f 483 425 484
f 484 425 424
f 484 424 485
f 485 424 423
f 485 423 473
f 473 423 406
f 473 406 474
f 474 406 405
f 474 405 475
f 475 405 400
f 475 400 476
f 476 400 399
f 476 399 477
f 477 399 404
f 477 404 478
f 478 404 422
f 478 422 479
f 479 422 421
f 479 421 480
f 480 421 420
f 480 420 481
f 481 420 419
f 385 486 388
f 388 486 487
f 388 487 360
f 360 487 488
f 360 488 362
f 362 488 489
f 362 489 367
f 367 489 490
f 367 490 366
f 366 490 491
f 366 491 374
f 374 491 492
f 374 492 368
f 368 492 493
f 368 493 375
f 375 493 494
f 375 494 376
f 376 494 495
f 376 495 377
f 377 495 496
f 377 496 378
f 378 496 497
f 378 497 385
f 385 497 486
f 498 499 492
f 492 499 500
f 492 500 493
f 493 500 501
f 493 501 494
f 494 501 502
f 494 502 495
f 495 502 503
f 495 503 496
f 496 503 504
f 496 504 497
f 497 504 505
f 497 505 486
f 486 505 506
f 486 506 487
f 487 506 507
f 487 507 488
f 488 507 508
f 488 508 489
f 489 508 509
f 489 509 490
f 490 509 510
f 490 510 491
f 491 510 498
f 491 498 492
f 506 397 507
f 507 397 402
f 507 402 508
f 508 402 411
f 508 411 509
f 509 411 435
f 509 435 510
f 510 435 401
f 510 401 498
f 498 401 433
f 498 433 499
f 499 433 432
f 499 432 500
f 500 432 431
f 500 431 501
f 501 431 430
f 501 430 502
f 502 430 429
f 502 429 503
f 503 429 428
f 503 428 504
f 504 428 427
f 504 427 505
f 505 427 398
f 505 398 506
f 506 398 397
f 395 173 174
f 169 168 167
f 167 168 396
f 167 396 165
f 165 396 178
f 173 395 172
f 172 395 171
f 172 171 170
f 169 183 168
f 168 183 182
f 168 182 171
f 171 182 181
f 171 181 170
f 174 176 395
f 395 176 215
f 395 215 396
f 396 215 214
f 396 214 178
f 80 215 93
f 93 215 176
f 93 176 94
f 94 176 174
f 94 174 82
f 82 174 173
f 82 173 81
f 81 173 172
f 81 172 83
f 83 172 170
f 83 170 73
f 73 170 181
f 80 53 215
f 215 53 214
f 65 182 63
f 63 182 183
f 63 183 62
f 62 183 169
f 62 169 50
f 50 169 167
f 50 167 49
f 49 167 165
f 49 165 51
f 51 165 178
f 51 178 53
f 53 178 214
f 65 73 182
f 182 73 181
f 511 53 80
f 62 50 63
f 63 50 512
f 63 512 65
f 65 512 513
f 511 514 53
f 53 514 515
f 53 515 51
f 51 515 512
f 51 512 49
f 49 512 50
f 80 516 517
f 518 519 520
f 520 519 521
f 520 521 80
f 80 521 522
f 80 522 511
f 94 82 93
f 93 82 523
f 93 523 80
f 80 523 524
f 80 524 516
f 525 526 517
f 517 526 527
f 517 527 80
f 80 527 528
f 80 528 520
f 513 529 65
f 65 529 530
f 65 530 73
f 73 530 531
f 73 531 532
f 82 81 523
f 523 81 83
f 523 83 533
f 533 83 73
f 533 73 534
f 534 73 535
f 518 536 519
f 519 536 537
f 519 537 538
f 538 537 539
f 538 539 531
f 531 539 540
f 531 540 532
f 532 541 73
f 73 541 542
f 73 542 535
f 535 542 543
f 525 544 526
f 526 544 545
f 526 545 542
f 542 545 546
f 542 546 543
f 547 548 549
f 550 548 547
f 547 551 552
f 553 551 547
f 549 553 547
f 547 554 555
f 556 554 547
f 552 556 547
f 547 557 558
f 559 557 547
f 555 559 547
f 558 550 547
f 550 535 548
f 548 535 543
f 548 543 549
f 549 543 546
f 549 546 553
f 553 546 545
f 553 545 551
f 551 545 544
f 551 544 552
f 552 544 525
f 552 525 556
f 556 525 517
f 556 517 554
f 554 517 516
f 554 516 555
f 555 516 524
f 555 524 559
f 559 524 523
f 559 523 557
f 557 523 533
f 557 533 558
f 558 533 534
f 558 534 550
f 550 534 535
f 560 561 562
f 563 561 560
f 560 564 565
f 566 564 560
f 562 566 560
f 560 567 568
f 569 567 560
f 565 569 560
f 560 570 571
f 572 570 560
f 568 572 560
f 571 563 560
f 563 530 561
f 561 530 529
f 561 529 562
f 562 529 513
f 562 513 566
f 566 513 512
f 566 512 564
f 564 512 515
f 564 515 565
f 565 515 514
f 565 514 569
f 569 514 511
f 569 511 567
f 567 511 522
f 567 522 568
f 568 522 521
f 568 521 572
f 572 521 519
f 572 519 570
f 570 519 538
f 570 538 571
f 571 538 531
f 571 531 563
f 563 531 530
f 573 574 575
f 576 574 573
f 573 577 578
f 579 577 573
f 575 579 573
f 573 580 581
f 582 580 573
f 578 582 573
f 573 583 584
f 585 583 573
f 581 585 573
f 584 576 573
f 576 532 574
f 574 532 540
f 574 540 575
f 575 540 539
f 575 539 579
f 579 539 537
f 579 537 577
f 577 537 536
f 577 536 578
f 578 536 518
f 578 518 582
f 582 518 520
f 582 520 580
f 580 520 528
f 580 528 581
f 581 528 527
f 581 527 585
f 585 527 526
f 585 526 583
f 583 526 542
f 583 542 584
f 584 542 541
f 584 541 576
f 576 541 532
f 586 297 587
f 587 297 296
f 587 296 588
f 588 296 292
f 588 292 589
f 589 292 290
f 589 290 590
f 590 290 288
f 590 288 591
f 591 288 287
f 591 287 592
f 592 287 295
f 586 593 297
f 297 593 298
f 594 294 595
f 595 294 293
f 595 293 596
f 596 293 283
f 596 283 597
f 597 283 282
f 597 282 598
f 598 282 284
f 598 284 599
f 599 284 286
f 599 286 593
f 593 286 298
f 594 592 294
f 294 592 295
f 596 597 595
f 595 597 600
f 595 600 594
f 594 600 601
f 597 598 600
f 600 598 599
f 600 599 602
f 602 599 593
f 602 593 603
f 604 605 606
f 607 608 609
f 609 608 610
f 609 610 611
f 611 610 612
f 611 612 613
f 613 612 614
f 615 616 617
f 617 616 618
f 617 618 619
f 619 618 620
f 619 620 606
f 606 620 621
f 606 621 604
f 615 608 616
f 616 608 592
f 616 592 622
f 622 592 594
f 622 594 623
f 623 594 601
f 592 624 591
f 591 624 625
f 591 625 590
f 603 593 626
f 626 593 586
f 626 586 604
f 604 586 627
f 604 627 605
f 607 628 608
f 608 628 629
f 608 629 592
f 592 629 630
f 592 630 624
f 586 587 625
f 590 625 589
f 589 625 587
f 589 587 588
f 625 631 586
f 586 631 632
f 586 632 614
f 612 633 614
f 614 633 634
f 614 634 586
f 586 634 635
f 586 635 627
f 636 637 638
f 639 637 636
f 636 640 641
f 642 640 636
f 638 642 636
f 636 643 644
f 645 643 636
f 641 645 636
f 636 646 647
f 648 646 636
f 644 648 636
f 647 639 636
f 639 629 637
f 637 629 628
f 637 628 638
f 638 628 607
f 638 607 642
f 642 607 609
f 642 609 640
f 640 609 611
f 640 611 641
f 641 611 613
f 641 613 645
f 645 613 614
f 645 614 643
f 643 614 632
f 643 632 644
f 644 632 631
f 644 631 648
f 648 631 625
f 648 625 646
f 646 625 624
f 646 624 647
f 647 624 630
f 647 630 639
f 639 630 629
f 649 650 651
f 652 650 649
f 649 653 654
f 655 653 649
f 651 655 649
f 649 656 657
f 658 656 649
f 654 658 649
f 649 659 660
f 661 659 649
f 657 661 649
f 660 652 649
f 652 622 650
f 650 622 623
f 650 623 651
f 651 623 601
f 651 601 655
f 655 601 600
f 655 600 653
f 653 600 602
f 653 602 654
f 654 602 603
f 654 603 658
f 658 603 626
f 658 626 656
f 656 626 604
f 656 604 657
f 657 604 621
f 657 621 661
f 661 621 620
f 661 620 659
f 659 620 618
f 659 618 660
f 660 618 616
f 660 616 652
f 652 616 622
f 662 663 664
f 665 663 662
f 662 666 667
f 668 666 662
f 664 668 662
f 662 669 670
f 671 669 662
f 667 671 662
f 662 672 673
f 674 672 662
f 670 674 662
f 673 665 662
f 665 608 663
f 663 608 615
f 663 615 664
f 664 615 617
f 664 617 668
f 668 617 619
f 668 619 666
f 666 619 606
f 666 606 667
f 667 606 605
f 667 605 671
f 671 605 627
f 671 627 669
f 669 627 635
f 669 635 670
f 670 635 634
f 670 634 674
f 674 634 633
f 674 633 672
f 672 633 612
f 672 612 673
f 673 612 610
f 673 610 665
f 665 610 608
f 675 676 677
f 677 676 678
f 677 678 679
f 679 678 680
f 679 680 681
f 681 680 682
f 681 682 683
f 683 682 684
f 683 684 685
f 685 684 686
f 685 686 687
f 687 686 688
f 687 688 689
f 689 688 690
f 691 692 693
f 693 692 694
f 693 694 695
f 695 694 696
f 695 696 697
f 697 696 698
f 697 698 699
f 699 698 700
f 699 700 701
f 701 700 702
f 701 702 703
f 703 702 704
f 703 704 705
f 705 704 706
f 707 708 709
f 709 708 710
f 709 710 711
f 711 710 712
f 711 712 713
f 713 712 714
f 713 714 715
f 715 714 716
f 715 716 717
f 717 716 718
f 717 718 719
f 719 718 720
f 719 720 721
f 721 720 722
f 723 724 725
f 725 724 726
f 727 728 729
f 729 728 730
f 729 730 731
f 731 730 732
f 731 732 726
f 725 733 723
f 723 733 734
f 723 734 735
f 735 734 736
f 735 736 737
f 737 736 738
f 737 738 739
f 739 738 740
f 740 738 741
f 740 741 742
f 742 743 744
f 744 743 745
f 727 729 746
f 746 729 747
f 746 747 748
f 748 747 749
f 749 747 750
f 749 750 751
f 751 750 752
f 751 752 753
f 688 754 690
f 690 754 755
f 756 757 758
f 688 686 759
f 759 686 684
f 759 684 760
f 760 684 682
f 760 682 753
f 753 682 680
f 753 680 751
f 759 710 708
f 761 762 763
f 763 762 741
f 763 741 764
f 764 741 738
f 765 766 767
f 767 766 768
f 767 768 769
f 755 770 690
f 690 770 756
f 690 756 771
f 771 756 758
f 720 718 772
f 772 718 773
f 772 773 692
f 688 759 754
f 754 759 708
f 754 708 774
f 775 776 777
f 761 778 762
f 762 778 779
f 762 779 780
f 780 779 781
f 780 781 782
f 782 781 783
f 782 783 784
f 784 783 785
f 784 785 786
f 741 787 742
f 742 787 788
f 742 788 743
f 743 788 765
f 743 765 789
f 789 765 767
f 745 743 790
f 790 743 791
f 790 791 731
f 718 716 773
f 773 716 714
f 773 714 759
f 759 714 712
f 759 712 710
f 777 792 775
f 775 792 706
f 775 706 785
f 785 706 704
f 785 704 786
f 786 704 702
f 786 702 793
f 793 702 700
f 793 700 769
f 769 700 698
f 769 698 767
f 767 698 696
f 767 696 773
f 773 696 694
f 773 694 692
f 724 794 726
f 726 794 795
f 726 795 731
f 731 795 796
f 731 796 790
f 676 797 798
f 799 800 801
f 680 678 751
f 751 678 676
f 751 676 802
f 802 676 798
f 802 798 803
f 804 805 722
f 722 805 799
f 722 799 806
f 806 799 801
f 720 772 722
f 722 772 807
f 722 807 804
f 808 809 294
f 284 286 285
f 810 811 287
f 812 293 283
f 287 811 288
f 288 811 813
f 288 813 814
f 814 815 288
f 288 815 816
f 288 816 290
f 290 816 291
f 290 291 292
f 287 817 818
f 812 283 285
f 285 283 282
f 285 282 284
f 286 298 285
f 285 298 297
f 285 297 291
f 291 297 296
f 291 296 292
f 818 819 287
f 287 819 820
f 287 820 810
f 293 812 294
f 294 812 821
f 294 821 808
f 822 823 824
f 824 823 825
f 825 823 826
f 825 826 827
f 827 826 828
f 827 828 829
f 829 828 830
f 829 830 831
f 824 832 822
f 822 832 833
f 822 833 834
f 834 833 835
f 834 835 836
f 836 835 837
f 836 837 838
f 838 837 839
f 838 839 840
f 831 830 841
f 841 830 842
f 841 842 843
f 843 842 844
f 843 844 809
f 809 844 845
f 809 845 846
f 846 847 809
f 809 847 848
f 809 848 294
f 294 848 849
f 294 849 850
f 850 851 294
f 294 851 817
f 294 817 295
f 295 817 287
f 815 852 816
f 816 852 853
f 816 853 854
f 854 853 855
f 854 855 856
f 856 855 840
f 856 840 857
f 857 840 839
f 749 816 854
f 749 854 748
f 748 854 856
f 748 856 746
f 746 856 857
f 746 857 727
f 727 857 839
f 727 839 728
f 728 839 837
f 728 837 730
f 730 837 835
f 730 835 732
f 732 835 833
f 732 833 726
f 726 833 832
f 726 832 725
f 725 832 824
f 725 824 733
f 733 824 825
f 733 825 734
f 734 825 827
f 734 827 736
f 736 827 829
f 736 829 738
f 738 829 831
f 738 831 764
f 764 831 841
f 764 841 763
f 763 841 843
f 763 843 761
f 761 843 809
f 761 809 778
f 778 809 808
f 778 808 779
f 779 808 821
f 779 821 781
f 781 821 812
f 781 812 783
f 816 749 291
f 291 749 751
f 785 783 285
f 285 783 812
f 858 756 770
f 291 751 802
f 802 859 291
f 291 859 858
f 291 858 860
f 860 858 770
f 799 805 861
f 861 805 862
f 775 785 863
f 863 785 285
f 863 285 862
f 862 285 291
f 862 291 861
f 861 291 860
f 847 864 848
f 848 864 865
f 848 865 849
f 849 865 866
f 849 866 850
f 850 866 867
f 850 867 851
f 851 867 868
f 851 868 817
f 817 868 869
f 817 869 818
f 818 869 870
f 818 870 819
f 819 870 871
f 819 871 820
f 820 871 872
f 820 872 810
f 810 872 873
f 810 873 811
f 811 873 874
f 811 874 813
f 813 874 875
f 813 875 814
f 814 875 876
f 814 876 815
f 815 876 877
f 815 877 852
f 852 877 878
f 852 878 853
f 853 878 879
f 853 879 855
f 855 879 880
f 855 880 840
f 840 880 881
f 840 881 838
f 838 881 882
f 838 882 836
f 836 882 883
f 836 883 834
f 834 883 884
f 834 884 822
f 822 884 885
f 822 885 823
f 823 885 886
f 823 886 826
f 826 886 887
f 826 887 828
f 828 887 888
f 828 888 830
f 830 888 889
f 830 889 842
f 842 889 890
f 842 890 844
f 844 890 891
f 844 891 845
f 845 891 892
f 845 892 846
f 846 892 893
f 846 893 847
f 847 893 864
f 880 879 894
f 895 896 884
f 897 898 899
f 884 896 885
f 885 896 900
f 885 900 886
f 898 894 899
f 899 894 879
f 899 879 901
f 901 879 878
f 901 878 902
f 902 878 877
f 902 877 903
f 903 877 876
f 903 876 904
f 884 883 895
f 895 883 882
f 895 882 894
f 894 882 881
f 894 881 880
f 905 906 864
f 864 906 865
f 865 906 907
f 865 907 866
f 900 908 886
f 886 908 909
f 886 909 887
f 887 909 910
f 887 910 888
f 888 910 911
f 892 891 912
f 912 891 890
f 912 890 911
f 911 890 889
f 911 889 888
f 864 893 905
f 905 893 892
f 905 892 913
f 913 892 912
f 913 912 914
f 914 912 915
f 914 915 916
f 916 915 897
f 916 897 917
f 917 897 899
f 917 899 918
f 872 871 919
f 919 871 870
f 919 870 920
f 907 921 866
f 866 921 922
f 866 922 867
f 867 922 923
f 867 923 868
f 868 923 920
f 868 920 869
f 869 920 870
f 924 872 925
f 925 872 919
f 925 919 926
f 926 919 917
f 926 917 927
f 927 917 918
f 904 876 928
f 928 876 875
f 928 875 929
f 929 875 874
f 929 874 924
f 924 874 873
f 924 873 872
f 908 930 909
f 909 930 931
f 909 931 910
f 910 931 932
f 910 932 911
f 911 932 933
f 911 933 912
f 912 933 934
f 912 934 915
f 915 934 935
f 915 935 897
f 897 935 936
f 897 936 898
f 898 936 937
f 898 937 894
f 894 937 938
f 894 938 895
f 895 938 939
f 895 939 896
f 896 939 940
f 896 940 900
f 900 940 941
f 900 941 908
f 908 941 930
f 942 943 936
f 936 943 944
f 936 944 937
f 937 944 945
f 937 945 938
f 938 945 946
f 938 946 939
f 939 946 947
f 939 947 940
f 940 947 948
f 940 948 941
f 941 948 949
f 941 949 930
f 930 949 950
f 930 950 931
f 931 950 951
f 931 951 932
f 932 951 952
f 932 952 933
f 933 952 953
f 933 953 934
f 934 953 954
f 934 954 935
f 935 954 942
f 935 942 936
f 950 723 951
f 951 723 735
f 951 735 952
f 952 735 737
f 952 737 953
f 953 737 739
f 953 739 954
f 954 739 740
f 954 740 942
f 942 740 742
f 942 742 943
f 943 742 744
f 943 744 944
f 944 744 745
f 944 745 945
f 945 745 790
f 945 790 946
f 946 790 796
f 946 796 947
f 947 796 795
f 947 795 948
f 948 795 794
f 948 794 949
f 949 794 724
f 949 724 950
f 950 724 723
f 913 955 905
f 905 955 956
f 905 956 906
f 906 956 957
f 906 957 907
f 907 957 958
f 907 958 921
f 921 958 959
f 921 959 922
f 922 959 960
f 922 960 923
f 923 960 961
f 923 961 920
f 920 961 962
f 920 962 919
f 919 962 963
f 919 963 917
f 917 963 964
f 917 964 916
f 916 964 965
f 916 965 914
f 914 965 966
f 914 966 913
f 913 966 955
f 967 968 961
f 961 968 969
f 961 969 962
f 962 969 970
f 962 970 963
f 963 970 971
f 963 971 964
f 964 971 972
f 964 972 965
f 965 972 973
f 965 973 966
f 966 973 974
f 966 974 955
f 955 974 975
f 955 975 956
f 956 975 976
f 956 976 957
f 957 976 977
f 957 977 958
f 958 977 978
f 958 978 959
f 959 978 979
f 959 979 960
f 960 979 967
f 960 967 961
f 975 741 976
f 976 741 762
f 976 762 977
f 977 762 780
f 977 780 978
f 978 780 782
f 978 782 979
f 979 782 784
f 979 784 967
f 967 784 786
f 967 786 968
f 968 786 793
f 968 793 969
f 969 793 769
f 969 769 970
f 970 769 768
f 970 768 971
f 971 768 766
f 971 766 972
f 972 766 765
f 972 765 973
f 973 765 788
f 973 788 974
f 974 788 787
f 974 787 975
f 975 787 741
f 899 980 918
f 918 980 981
f 918 981 927
f 927 981 982
f 927 982 926
f 926 982 983
f 926 983 925
f 925 983 984
f 925 984 924
f 924 984 985
f 924 985 929
f 929 985 986
f 929 986 928
f 928 986 987
f 928 987 904
f 904 987 988
f 904 988 903
f 903 988 989
f 903 989 902
f 902 989 990
f 902 990 901
f 901 990 991
f 901 991 899
f 899 991 980
f 992 993 986
f 986 993 994
f 986 994 987
f 987 994 995
f 987 995 988
f 988 995 996
f 988 996 989
f 989 996 997
f 989 997 990
f 990 997 998
f 990 998 991
f 991 998 999
f 991 999 980
f 980 999 1000
f 980 1000 981
f 981 1000 1001
f 981 1001 982
f 982 1001 1002
f 982 1002 983
f 983 1002 1003
f 983 1003 984
f 984 1003 1004
f 984 1004 985
f 985 1004 992
f 985 992 986
f 1000 731 1001
f 1001 731 791
f 1001 791 1002
f 1002 791 743
f 1002 743 1003
f 1003 743 789
f 1003 789 1004
f 1004 789 767
f 1004 767 992
f 992 767 773
f 992 773 993
f 993 773 759
f 993 759 994
f 994 759 760
f 994 760 995
f 995 760 753
f 995 753 996
f 996 753 752
f 996 752 997
f 997 752 750
f 997 750 998
f 998 750 747
f 998 747 999
f 999 747 729
f 999 729 1000
f 1000 729 731
f 592 295 287
f 592 287 591
f 591 287 288
f 591 288 590
f 590 288 290
f 590 290 589
f 589 290 292
f 589 292 588
f 588 292 296
f 588 296 587
f 587 296 297
f 587 297 586
f 593 586 298
f 298 586 297
f 593 298 286
f 593 286 599
f 599 286 284
f 599 284 598
f 598 284 282
f 598 282 597
f 597 282 283
f 597 283 596
f 596 283 293
f 596 293 595
f 595 293 294
f 595 294 594
f 592 594 295
f 295 594 294
f 1005 1006 1007
f 1007 1008 1005
f 1005 1008 1009
f 1005 1009 1010
f 1010 1009 1011
f 590 589 591
f 591 589 1012
f 591 1012 592
f 1012 1013 592
f 592 1013 1014
f 592 1014 1015
f 1016 1017 1018
f 1018 1017 1019
f 1018 1019 1020
f 1020 1019 1021
f 1020 1021 1022
f 1023 1024 586
f 586 1024 1020
f 586 1020 1025
f 1025 1020 1022
f 1025 1026 586
f 586 1026 1027
f 586 1027 587
f 587 1027 1012
f 587 1012 588
f 588 1012 589
f 1016 1018 1015
f 1015 1018 1028
f 1015 1028 592
f 592 1028 1029
f 592 1029 1006
f 1005 1030 1006
f 1006 1030 1031
f 1006 1031 592
f 592 1031 1032
f 592 1032 594
f 1011 1033 1010
f 1010 1033 1023
f 1010 1023 1034
f 1034 1023 586
f 1034 586 1035
f 1035 586 593
f 1035 593 1036
f 1032 1037 594
f 594 1037 1038
f 594 1038 595
f 595 1038 1039
f 595 1039 596
f 596 1039 597
f 598 597 599
f 599 597 1039
f 599 1039 593
f 593 1039 1040
f 593 1040 1036
f 1041 1042 1043
f 1044 1045 1046
f 1046 1045 1047
f 1046 1047 1048
f 1048 1047 675
f 1048 675 1049
f 1049 675 677
f 1049 677 1050
f 1050 677 679
f 1050 679 1051
f 1042 858 1044
f 1044 858 859
f 679 681 1051
f 1051 681 683
f 1051 683 1052
f 1052 683 685
f 1052 685 1053
f 1053 685 687
f 1053 687 1054
f 1054 687 689
f 1054 689 1043
f 1043 689 1055
f 1043 1055 1041
f 1046 1056 1044
f 1044 1056 1057
f 1044 1057 1042
f 1042 1057 1058
f 1042 1058 1043
f 1015 1051 1016
f 1016 1051 1052
f 1016 1052 1017
f 1017 1052 1053
f 1017 1053 1019
f 1019 1053 1054
f 1019 1054 1021
f 1021 1054 1043
f 1021 1043 1022
f 1022 1043 1058
f 1022 1058 1025
f 1025 1058 1057
f 1025 1057 1026
f 1026 1057 1056
f 1026 1056 1027
f 1027 1056 1046
f 1027 1046 1012
f 1012 1046 1048
f 1012 1048 1013
f 1013 1048 1049
f 1013 1049 1014
f 1014 1049 1050
f 1014 1050 1015
f 1015 1050 1051
f 1059 1060 1061
f 1062 699 1063
f 1063 699 701
f 1063 701 1064
f 1064 701 703
f 1064 703 1065
f 1065 703 705
f 1065 705 1061
f 1061 705 1066
f 1061 1066 1059
f 1060 863 1067
f 1067 863 862
f 1067 1068 1069
f 1069 1068 1070
f 1069 1070 1071
f 1071 1070 691
f 1071 691 1072
f 1072 691 693
f 1072 693 1073
f 1073 693 695
f 1073 695 1062
f 1062 695 697
f 1062 697 699
f 1069 1074 1067
f 1067 1074 1075
f 1067 1075 1060
f 1060 1075 1076
f 1060 1076 1061
f 1032 1062 1037
f 1037 1062 1063
f 1037 1063 1038
f 1038 1063 1064
f 1038 1064 1039
f 1039 1064 1065
f 1039 1065 1040
f 1040 1065 1061
f 1040 1061 1036
f 1036 1061 1076
f 1036 1076 1035
f 1035 1076 1075
f 1035 1075 1034
f 1034 1075 1074
f 1034 1074 1010
f 1010 1074 1069
f 1010 1069 1005
f 1005 1069 1071
f 1005 1071 1030
f 1030 1071 1072
f 1030 1072 1031
f 1031 1072 1073
f 1031 1073 1032
f 1032 1073 1062
f 1077 1078 1079
f 1079 1078 1080
f 1079 1080 1081
f 1081 1080 707
f 1081 707 1082
f 1082 707 709
f 1082 709 1083
f 1083 709 711
f 1083 711 1084
f 1085 861 1077
f 1077 861 860
f 1086 1085 1087
f 1079 1088 1077
f 1077 1088 1089
f 1077 1089 1085
f 1085 1089 1090
f 1085 1090 1087
f 711 713 1084
f 1084 713 715
f 1084 715 1091
f 1091 715 717
f 1091 717 1092
f 1092 717 719
f 1092 719 1093
f 1093 719 721
f 1093 721 1087
f 1087 721 1094
f 1087 1094 1086
f 1006 1084 1007
f 1007 1084 1091
f 1007 1091 1008
f 1008 1091 1092
f 1008 1092 1009
f 1009 1092 1093
f 1009 1093 1011
f 1011 1093 1087
f 1011 1087 1033
f 1033 1087 1090
f 1033 1090 1023
f 1023 1090 1089
f 1023 1089 1024
f 1024 1089 1088
f 1024 1088 1020
f 1020 1088 1079
f 1020 1079 1018
f 1018 1079 1081
f 1018 1081 1028
f 1028 1081 1082
f 1028 1082 1029
f 1029 1082 1083
f 1029 1083 1006
f 1006 1083 1084
f 689 690 771
f 689 771 1055
f 1055 771 758
f 1055 758 1041
f 1041 758 757
f 1041 757 1042
f 1042 757 756
f 1042 756 858
f 860 770 755
f 860 755 1077
f 1077 755 754
f 1077 754 1078
f 1078 754 774
f 1078 774 1080
f 1080 774 708
f 1080 708 707
f 721 722 806
f 721 806 1094
f 1094 806 801
f 1094 801 1086
f 1086 801 800
f 1086 800 1085
f 1085 800 799
f 1085 799 861
f 862 805 804
f 862 804 1067
f 1067 804 807
f 1067 807 1068
f 1068 807 772
f 1068 772 1070
f 1070 772 692
f 1070 692 691
f 705 706 792
f 705 792 1066
f 1066 792 777
f 1066 777 1059
f 1059 777 776
f 1059 776 1060
f 1060 776 775
f 1060 775 863
f 859 802 803
f 859 803 1044
f 1044 803 798
f 1044 798 1045
f 1045 798 797
f 1045 797 1047
f 1047 797 676
f 1047 676 675

