mtllib material.mtl
usemtl mtl_GRIPPER_LEFT
v -0.05500000 0.01700000 0.02500000
v -0.05500000 0.01700000 0.04000000
v -0.03500000 0.01700000 0.02500000
v -0.00500000 0.01700000 0.04000000
v -0.03500000 0.01700000 -0.02500000
v -0.00500000 0.01700000 -0.04000000
v -0.05500000 0.01700000 -0.02500000
v -0.05500000 0.01700000 -0.04000000
v -0.05500000 0.01200000 -0.02500000
v -0.05500000 -0.00000000 -0.04000000
v -0.05500000 0.01200000 0.02500000
v -0.05500000 -0.00000000 0.04000000
v 0.05500000 -0.00000000 0.04000000
v 0.05500000 -0.00000000 -0.04000000
v 0.05500000 0.00600000 0.04000000
v 0.05500000 0.00600000 -0.04000000
v -0.03500000 0.01200000 -0.02500000
v -0.03500000 0.01200000 0.02500000
v -0.04650000 0.01200000 0.01240192
v -0.04200000 0.01200000 -0.01500000
v -0.04240192 0.01200000 -0.01350000
v -0.04759808 0.01200000 0.01650000
v -0.04800000 0.01200000 0.01500000
v -0.04759808 0.01200000 0.01350000
v -0.04800000 0.01200000 -0.01500000
v -0.04759808 0.01200000 -0.01350000
v -0.04650000 0.01200000 -0.01240192
v -0.04500000 0.01200000 -0.01200000
v -0.04350000 0.01200000 -0.01240192
v -0.04759808 0.01200000 -0.01650000
v -0.04650000 0.01200000 -0.01759808
v -0.04500000 0.01200000 -0.01800000
v -0.04240192 0.01200000 0.01650000
v -0.04350000 0.01200000 0.01759808
v -0.04500000 0.01200000 0.01800000
v -0.04650000 0.01200000 0.01759808
v -0.04350000 0.01200000 -0.01759808
v -0.04240192 0.01200000 -0.01650000
v -0.04500000 0.01200000 0.01200000
v -0.04350000 0.01200000 0.01240192
v -0.04240192 0.01200000 0.01350000
v -0.04200000 0.01200000 0.01500000
v -0.04800000 0.00200000 -0.01500000
v -0.04759808 0.00200000 -0.01350000
v -0.04650000 0.00200000 -0.01240192
v -0.04500000 0.00200000 -0.01200000
v -0.04350000 0.00200000 -0.01240192
v -0.04240192 0.00200000 -0.01350000
v -0.04200000 0.00200000 -0.01500000
v -0.04240192 0.00200000 -0.01650000
v -0.04350000 0.00200000 -0.01759808
v -0.04500000 0.00200000 -0.01800000
v -0.04650000 0.00200000 -0.01759808
v -0.04759808 0.00200000 -0.01650000
v -0.04500000 0.00200000 -0.01500000
v -0.04800000 0.00200000 0.01500000
v -0.04759808 0.00200000 0.01650000
v -0.04650000 0.00200000 0.01759808
v -0.04500000 0.00200000 0.01800000
v -0.04350000 0.00200000 0.01759808
v -0.04240192 0.00200000 0.01650000
v -0.04200000 0.00200000 0.01500000
v -0.04240192 0.00200000 0.01350000
v -0.04350000 0.00200000 0.01240192
v -0.04500000 0.00200000 0.01200000
v -0.04650000 0.00200000 0.01240192
v -0.04759808 0.00200000 0.01350000
v -0.04500000 0.00200000 0.01500000
v -0.05990000 0.01200000 -0.01820000
v -0.05990000 0.01200000 -0.02200000
v -0.06380000 0.01200000 -0.01820000
v -0.06380000 0.01200000 -0.02200000
v -0.06380000 -0.08244173 -0.00672500
v -0.07480000 -0.08244173 -0.00672500
v -0.06380000 -0.08299630 -0.00672500
v -0.07480000 -0.08299630 -0.00672500
v -0.06380000 -0.07961430 -0.00672500
v -0.07480000 -0.07961430 -0.00672500
v -0.06380000 -0.08016887 -0.00672500
v -0.07480000 -0.08016887 -0.00672500
v -0.06380000 -0.07678686 -0.00672500
v -0.07480000 -0.07678686 -0.00672500
v -0.06380000 -0.07734144 -0.00672500
v -0.07480000 -0.07734144 -0.00672500
v -0.06380000 -0.07395943 -0.00672500
v -0.07480000 -0.07395943 -0.00672500
v -0.06380000 -0.07451400 -0.00672500
v -0.07480000 -0.07451400 -0.00672500
v -0.06380000 -0.07113200 -0.00672500
v -0.07480000 -0.07113200 -0.00672500
v -0.06380000 -0.07168657 -0.00672500
v -0.07480000 -0.07168657 -0.00672500
v -0.06380000 -0.06830456 -0.00672500
v -0.07480000 -0.06830456 -0.00672500
v -0.06380000 -0.06885914 -0.00672500
v -0.07480000 -0.06885914 -0.00672500
v -0.06380000 -0.06547713 -0.00672500
v -0.07480000 -0.06547713 -0.00672500
v -0.06380000 -0.06603170 -0.00672500
v -0.07480000 -0.06603170 -0.00672500
v -0.06380000 -0.06264970 -0.00672500
v -0.07480000 -0.06264970 -0.00672500
v -0.06380000 -0.06320427 -0.00672500
v -0.07480000 -0.06320427 -0.00672500
v -0.06380000 -0.05982227 -0.00672500
v -0.07480000 -0.05982227 -0.00672500
v -0.06380000 -0.06037684 -0.00672500
v -0.07480000 -0.06037684 -0.00672500
v -0.06380000 -0.05699484 -0.00672500
v -0.07480000 -0.05699484 -0.00672500
v -0.06380000 -0.05754941 -0.00672500
v -0.07480000 -0.05754941 -0.00672500
v -0.06380000 -0.05416740 -0.00672500
v -0.07480000 -0.05416740 -0.00672500
v -0.06380000 -0.05472197 -0.00672500
v -0.07480000 -0.05472197 -0.00672500
v -0.06380000 -0.05133997 -0.00672500
v -0.07480000 -0.05133997 -0.00672500
v -0.06380000 -0.05189453 -0.00672500
v -0.07480000 -0.05189453 -0.00672500
v -0.06380000 -0.04851253 -0.00672500
v -0.07480000 -0.04851253 -0.00672500
v -0.06380000 -0.04906711 -0.00672500
v -0.07480000 -0.04906711 -0.00672500
v -0.06380000 -0.04568510 -0.00672500
v -0.07480000 -0.04568510 -0.00672500
v -0.06380000 -0.04623967 -0.00672500
v -0.07480000 -0.04623967 -0.00672500
v -0.06380000 -0.04285767 -0.00672500
v -0.07480000 -0.04285767 -0.00672500
v -0.06380000 -0.04341224 -0.00672500
v -0.07480000 -0.04341224 -0.00672500
v -0.06380000 -0.04003023 -0.00672500
v -0.07480000 -0.04003023 -0.00672500
v -0.06380000 -0.04058481 -0.00672500
v -0.07480000 -0.04058481 -0.00672500
v -0.06380000 -0.03720280 -0.00672500
v -0.07480000 -0.03720280 -0.00672500
v -0.06380000 -0.03775737 -0.00672500
v -0.07480000 -0.03775737 -0.00672500
v -0.06380000 -0.03437537 -0.00672500
v -0.07480000 -0.03437537 -0.00672500
v -0.06380000 -0.03492994 -0.00672500
v -0.07480000 -0.03492994 -0.00672500
v -0.06380000 -0.03154793 -0.00672500
v -0.07480000 -0.03154793 -0.00672500
v -0.06380000 -0.03210250 -0.00672500
v -0.07480000 -0.03210250 -0.00672500
v -0.06380000 -0.02872050 -0.00672500
v -0.07480000 -0.02872050 -0.00672500
v -0.06380000 -0.02927507 -0.00672500
v -0.07480000 -0.02927507 -0.00672500
v -0.06380000 -0.02589306 -0.00672500
v -0.07480000 -0.02589306 -0.00672500
v -0.06380000 -0.02644764 -0.00672500
v -0.07480000 -0.02644764 -0.00672500
v -0.06380000 -0.02306563 -0.00672500
v -0.07480000 -0.02306563 -0.00672500
v -0.06380000 -0.02362020 -0.00672500
v -0.07480000 -0.02362020 -0.00672500
v -0.06380000 -0.02023820 -0.00672500
v -0.07480000 -0.02023820 -0.00672500
v -0.06380000 -0.02079277 -0.00672500
v -0.07480000 -0.02079277 -0.00672500
v -0.06380000 -0.01741076 -0.00672500
v -0.07480000 -0.01741076 -0.00672500
v -0.06380000 -0.01796534 -0.00672500
v -0.07480000 -0.01796534 -0.00672500
v -0.06380000 -0.01458333 -0.00672500
v -0.07480000 -0.01458333 -0.00672500
v -0.06380000 -0.01513790 -0.00672500
v -0.07480000 -0.01513790 -0.00672500
v -0.06380000 -0.01175590 -0.00672500
v -0.07480000 -0.01175590 -0.00672500
v -0.06380000 -0.01231047 -0.00672500
v -0.07480000 -0.01231047 -0.00672500
v -0.06380000 -0.00892846 -0.00672500
v -0.07480000 -0.00892846 -0.00672500
v -0.06380000 -0.00948304 -0.00672500
v -0.07480000 -0.00948304 -0.00672500
v -0.06380000 -0.00610103 -0.00672500
v -0.07480000 -0.00610103 -0.00672500
v -0.06380000 -0.00665560 -0.00672500
v -0.07480000 -0.00665560 -0.00672500
v -0.06380000 -0.00327360 -0.00672500
v -0.07480000 -0.00327360 -0.00672500
v -0.06380000 -0.00382817 -0.00672500
v -0.07480000 -0.00382817 -0.00672500
v -0.06380000 -0.00044617 -0.00672500
v -0.07480000 -0.00044617 -0.00672500
v -0.06380000 -0.00100074 -0.00672500
v -0.07480000 -0.00100074 -0.00672500
v -0.06380000 0.00238127 -0.00672500
v -0.07480000 0.00238127 -0.00672500
v -0.06380000 0.00182670 -0.00672500
v -0.07480000 0.00182670 -0.00672500
v -0.06380000 0.00520870 -0.00672500
v -0.07480000 0.00520870 -0.00672500
v -0.06380000 0.00465413 -0.00672500
v -0.07480000 0.00465413 -0.00672500
v -0.06380000 0.00803613 -0.00672500
v -0.07480000 0.00803613 -0.00672500
v -0.06380000 0.00748156 -0.00672500
v -0.07480000 0.00748156 -0.00672500
v -0.06380000 0.01086357 -0.00672500
v -0.07480000 0.01086357 -0.00672500
v -0.06380000 0.01030900 -0.00672500
v -0.07480000 0.01030900 -0.00672500
v -0.07870000 0.01200000 -0.02200000
v -0.07870000 0.01200000 -0.01820000
v -0.07480000 0.01200000 -0.02200000
v -0.07480000 0.01200000 -0.01820000
v -0.06380000 -0.08526917 -0.00672500
v -0.07480000 -0.08526917 -0.00672500
v -0.06380000 -0.08582374 -0.00672500
v -0.07480000 -0.08582374 -0.00672500
v -0.07480000 -0.08800000 -0.01820000
v -0.07870000 -0.08800000 -0.01820000
v -0.07870000 -0.08800000 -0.02200000
v -0.05990000 -0.08800000 -0.02200000
v -0.05990000 -0.08800000 -0.01820000
v -0.06380000 -0.08800000 -0.01820000
v -0.06380000 -0.08800000 -0.00699041
v -0.07480000 -0.08800000 -0.00699041
v -0.06380000 0.02200000 -0.02200000
v -0.06380000 -0.08735956 -0.00875000
v -0.06380000 0.02200000 -0.01270000
v -0.06380000 0.01200000 -0.01270000
v -0.06380000 -0.08090591 -0.00875000
v -0.06380000 -0.08170469 -0.00875000
v -0.06380000 -0.08656078 -0.00875000
v -0.06380000 -0.05263158 -0.00875000
v -0.06380000 -0.05343036 -0.00875000
v -0.06380000 -0.08373334 -0.00875000
v -0.06380000 -0.08453213 -0.00875000
v -0.06380000 -0.05060293 -0.00875000
v -0.06380000 -0.05828645 -0.00875000
v -0.06380000 -0.05908523 -0.00875000
v -0.06380000 0.01200000 -0.00875000
v -0.06380000 0.01160061 -0.00875000
v -0.06380000 -0.00536399 -0.00875000
v -0.06380000 -0.00739264 -0.00875000
v -0.06380000 -0.05625780 -0.00875000
v -0.06380000 -0.06959617 -0.00875000
v -0.06380000 -0.07039496 -0.00875000
v -0.06380000 -0.05545901 -0.00875000
v -0.06380000 -0.03363833 -0.00875000
v -0.06380000 -0.03566698 -0.00875000
v -0.06380000 -0.06191266 -0.00875000
v -0.06380000 -0.07887726 -0.00875000
v -0.06380000 0.00311831 -0.00875000
v -0.06380000 -0.06394131 -0.00875000
v -0.06380000 -0.06474009 -0.00875000
v -0.06380000 -0.03081089 -0.00875000
v -0.06380000 -0.06111388 -0.00875000
v -0.06380000 -0.07322239 -0.00875000
v -0.06380000 -0.03929320 -0.00875000
v -0.06380000 -0.06756753 -0.00875000
v -0.06380000 -0.07525104 -0.00875000
v -0.06380000 -0.07604983 -0.00875000
v -0.06380000 0.00957196 -0.00875000
v -0.06380000 0.00877318 -0.00875000
v -0.06380000 0.00108966 -0.00875000
v -0.06380000 0.00029087 -0.00875000
v -0.06380000 -0.04132184 -0.00875000
v -0.06380000 -0.04212063 -0.00875000
v -0.06380000 -0.06676874 -0.00875000
v -0.06380000 -0.07242361 -0.00875000
v -0.06380000 -0.01101886 -0.00875000
v -0.06380000 -0.01022008 -0.00875000
v -0.06380000 -0.00819143 -0.00875000
v -0.06380000 -0.01384629 -0.00875000
v -0.06380000 -0.03283954 -0.00875000
v -0.06380000 -0.03646576 -0.00875000
v -0.06380000 -0.03849441 -0.00875000
v -0.06380000 -0.07807847 -0.00875000
v -0.06380000 0.00674453 -0.00875000
v -0.06380000 0.00594574 -0.00875000
v -0.06380000 -0.00173778 -0.00875000
v -0.06380000 -0.00253656 -0.00875000
v -0.06380000 -0.00456521 -0.00875000
v -0.06380000 -0.04494806 -0.00875000
v -0.06380000 0.00391709 -0.00875000
v -0.06380000 -0.01587494 -0.00875000
v -0.06380000 -0.01667373 -0.00875000
v -0.06380000 -0.04697671 -0.00875000
v -0.06380000 -0.04777550 -0.00875000
v -0.06380000 -0.04414928 -0.00875000
v -0.06380000 -0.01304751 -0.00875000
v -0.06380000 -0.01950116 -0.00875000
v -0.06380000 -0.04980414 -0.00875000
v -0.06380000 -0.02152981 -0.00875000
v -0.06380000 -0.02232859 -0.00875000
v -0.06380000 -0.01870237 -0.00875000
v -0.06380000 -0.02515603 -0.00875000
v -0.06380000 -0.02718467 -0.00875000
v -0.06380000 -0.02798346 -0.00875000
v -0.06380000 -0.02435724 -0.00875000
v -0.06380000 -0.03001211 -0.00875000
v -0.07480000 0.01200000 -0.00875000
v -0.07480000 0.01200000 0.00200000
v -0.07480000 0.01900000 0.00200000
v -0.07480000 0.01160061 -0.00875000
v -0.07480000 0.01900000 -0.02200000
v -0.07480000 -0.08735956 -0.00875000
v -0.07480000 -0.08656078 -0.00875000
v -0.07480000 -0.08453213 -0.00875000
v -0.07480000 -0.08373334 -0.00875000
v -0.07480000 -0.08090591 -0.00875000
v -0.07480000 -0.07887726 -0.00875000
v -0.07480000 -0.05263158 -0.00875000
v -0.07480000 -0.07525104 -0.00875000
v -0.07480000 -0.07604983 -0.00875000
v -0.07480000 -0.07807847 -0.00875000
v -0.07480000 -0.08170469 -0.00875000
v -0.07480000 -0.06676874 -0.00875000
v -0.07480000 -0.06474009 -0.00875000
v -0.07480000 -0.06394131 -0.00875000
v -0.07480000 -0.07322239 -0.00875000
v -0.07480000 -0.07242361 -0.00875000
v -0.07480000 -0.07039496 -0.00875000
v -0.07480000 -0.06959617 -0.00875000
v -0.07480000 -0.03849441 -0.00875000
v -0.07480000 -0.06756753 -0.00875000
v -0.07480000 -0.04980414 -0.00875000
v -0.07480000 -0.00739264 -0.00875000
v -0.07480000 -0.04777550 -0.00875000
v -0.07480000 -0.04697671 -0.00875000
v -0.07480000 -0.03283954 -0.00875000
v -0.07480000 -0.03081089 -0.00875000
v -0.07480000 -0.00536399 -0.00875000
v -0.07480000 -0.00456521 -0.00875000
v -0.07480000 -0.06191266 -0.00875000
v -0.07480000 -0.06111388 -0.00875000
v -0.07480000 -0.05908523 -0.00875000
v -0.07480000 -0.05828645 -0.00875000
v -0.07480000 -0.03566698 -0.00875000
v -0.07480000 -0.05625780 -0.00875000
v -0.07480000 -0.05545901 -0.00875000
v -0.07480000 -0.05060293 -0.00875000
v -0.07480000 -0.00173778 -0.00875000
v -0.07480000 -0.05343036 -0.00875000
v -0.07480000 -0.04414928 -0.00875000
v -0.07480000 -0.02718467 -0.00875000
v -0.07480000 0.00029087 -0.00875000
v -0.07480000 0.00108966 -0.00875000
v -0.07480000 -0.04212063 -0.00875000
v -0.07480000 -0.04132184 -0.00875000
v -0.07480000 -0.03363833 -0.00875000
v -0.07480000 -0.03001211 -0.00875000
v -0.07480000 -0.02515603 -0.00875000
v -0.07480000 -0.02435724 -0.00875000
v -0.07480000 -0.00253656 -0.00875000
v -0.07480000 -0.04494806 -0.00875000
v -0.07480000 -0.02798346 -0.00875000
v -0.07480000 0.00391709 -0.00875000
v -0.07480000 -0.03646576 -0.00875000
v -0.07480000 -0.02152981 -0.00875000
v -0.07480000 0.00594574 -0.00875000
v -0.07480000 0.00674453 -0.00875000
v -0.07480000 -0.03929320 -0.00875000
v -0.07480000 -0.01950116 -0.00875000
v -0.07480000 -0.01870237 -0.00875000
v -0.07480000 0.00311831 -0.00875000
v -0.07480000 -0.02232859 -0.00875000
v -0.07480000 0.00877318 -0.00875000
v -0.07480000 0.00957196 -0.00875000
v -0.07480000 -0.01587494 -0.00875000
v -0.07480000 -0.01384629 -0.00875000
v -0.07480000 -0.01304751 -0.00875000
v -0.07480000 -0.01667373 -0.00875000
v -0.07480000 -0.01101886 -0.00875000
v -0.07480000 -0.01022008 -0.00875000
v -0.07480000 -0.00819143 -0.00875000
v -0.06700000 0.02200000 -0.02200000
v -0.05480000 0.01200000 0.00200000
v -0.04313805 0.01200000 0.01597500
v -0.04285000 0.01200000 0.01490000
v -0.03500000 0.01200000 0.02490000
v -0.04313805 0.01200000 0.01382500
v -0.04587500 0.01200000 -0.01303805
v -0.04480000 0.01200000 -0.01275000
v -0.04392500 0.01200000 0.01303804
v -0.04500000 0.01200000 0.01275000
v -0.04372500 0.01200000 -0.01303805
v -0.04293805 0.01200000 -0.01382500
v -0.03500000 0.01200000 -0.02490000
v -0.04265000 0.01200000 -0.01490000
v -0.04293805 0.01200000 -0.01597500
v -0.05480000 0.01200000 -0.01270000
v -0.04666195 0.01200000 -0.01382500
v -0.04607500 0.01200000 0.01303804
v -0.04686195 0.01200000 0.01382500
v -0.05480000 0.01200000 0.02490000
v -0.04715000 0.01200000 0.01490000
v -0.04686195 0.01200000 0.01597500
v -0.04372500 0.01200000 -0.01676195
v -0.04480000 0.01200000 -0.01705000
v -0.05480000 0.01200000 -0.02490000
v -0.04587500 0.01200000 -0.01676195
v -0.04666195 0.01200000 -0.01597500
v -0.04695000 0.01200000 -0.01490000
v -0.04607500 0.01200000 0.01676195
v -0.04500000 0.01200000 0.01705000
v -0.04392500 0.01200000 0.01676195
v -0.06700000 0.02200000 0.00200000
v -0.05480000 0.02200000 0.00200000
v -0.05480000 0.02200000 0.02490000
v -0.04700000 0.02200000 0.02490000
v -0.03500000 0.01700000 0.02490000
v -0.03500000 0.01700000 -0.02490000
v -0.04700000 0.02200000 -0.02490000
v -0.05480000 0.02200000 -0.02490000
v -0.05480000 0.02200000 -0.01270000
v -0.04700000 0.02200000 -0.01824066
v -0.04826410 0.02200000 -0.01690000
v -0.04880000 0.02200000 -0.01490000
v -0.04826410 0.02200000 -0.01290000
v -0.04700000 0.02200000 -0.01155934
v -0.04700000 0.02200000 0.01836410
v -0.04846410 0.02200000 0.01690000
v -0.04900000 0.02200000 0.01490000
v -0.04846410 0.02200000 0.01290000
v -0.04700000 0.02200000 0.01143590
v -0.04695000 0.01500000 -0.01490000
v -0.04666195 0.01500000 -0.01382500
v -0.04587500 0.01500000 -0.01303805
v -0.04480000 0.01500000 -0.01275000
v -0.04372500 0.01500000 -0.01303805
v -0.04293805 0.01500000 -0.01382500
v -0.04265000 0.01500000 -0.01490000
v -0.04293805 0.01500000 -0.01597500
v -0.04372500 0.01500000 -0.01676195
v -0.04480000 0.01500000 -0.01705000
v -0.04587500 0.01500000 -0.01676195
v -0.04666195 0.01500000 -0.01597500
v -0.04680000 0.01500000 -0.01143590
v -0.04480000 0.01500000 -0.01090000
v -0.04280000 0.01500000 -0.01143590
v -0.04133590 0.01500000 -0.01290000
v -0.04080000 0.01500000 -0.01490000
v -0.04133590 0.01500000 -0.01690000
v -0.04280000 0.01500000 -0.01836410
v -0.04480000 0.01500000 -0.01890000
v -0.04680000 0.01500000 -0.01836410
v -0.04826410 0.01500000 -0.01690000
v -0.04880000 0.01500000 -0.01490000
v -0.04826410 0.01500000 -0.01290000
v -0.04480000 0.02108333 -0.01090000
v -0.04280000 0.02025000 -0.01143590
v -0.04133590 0.01963996 -0.01290000
v -0.04093629 0.01947346 -0.01386472
v -0.04080000 0.01941667 -0.01490000
v -0.04093629 0.01947346 -0.01593528
v -0.04680000 0.02191667 -0.01143590
v -0.04133590 0.01963996 -0.01690000
v -0.04280000 0.02025000 -0.01836410
v -0.04480000 0.02108333 -0.01890000
v -0.04680000 0.02191667 -0.01836410
v -0.04715000 0.01500000 0.01490000
v -0.04686195 0.01500000 0.01597500
v -0.04607500 0.01500000 0.01676195
v -0.04500000 0.01500000 0.01705000
v -0.04392500 0.01500000 0.01676195
v -0.04313805 0.01500000 0.01597500
v -0.04285000 0.01500000 0.01490000
v -0.04313805 0.01500000 0.01382500
v -0.04392500 0.01500000 0.01303804
v -0.04500000 0.01500000 0.01275000
v -0.04607500 0.01500000 0.01303804
v -0.04686195 0.01500000 0.01382500
v -0.04153590 0.01500000 0.01290000
v -0.04300000 0.01500000 0.01143590
v -0.04500000 0.01500000 0.01090000
v -0.04700000 0.01500000 0.01143590
v -0.04846410 0.01500000 0.01290000
v -0.04900000 0.01500000 0.01490000
v -0.04846410 0.01500000 0.01690000
v -0.04700000 0.01500000 0.01836410
v -0.04500000 0.01500000 0.01890000
v -0.04300000 0.01500000 0.01836410
v -0.04153590 0.01500000 0.01690000
v -0.04100000 0.01500000 0.01490000
v -0.04500000 0.02116667 0.01090000
v -0.04300000 0.02033333 0.01143590
v -0.04153590 0.01972329 0.01290000
v -0.04500000 0.02116667 0.01890000
v -0.04300000 0.02033333 0.01836410
v -0.04153590 0.01972329 0.01690000
v -0.04113629 0.01955679 0.01593528
v -0.04100000 0.01950000 0.01490000
v -0.04113629 0.01955679 0.01386472
f 1 2 3
f 3 2 4
f 3 4 5
f 5 4 6
f 5 6 7
f 7 6 8
f 7 8 9
f 9 8 10
f 9 10 11
f 11 10 12
f 11 12 1
f 1 12 2
f 13 12 14
f 14 12 10
f 15 13 16
f 16 13 14
f 4 15 6
f 6 15 16
f 13 15 12
f 12 15 4
f 12 4 2
f 16 14 6
f 6 14 10
f 6 10 8
f 9 17 7
f 7 17 5
f 17 18 5
f 5 18 3
f 18 11 3
f 3 11 1
f 19 20 21
f 22 23 11
f 11 23 24
f 25 9 26
f 26 9 11
f 26 11 27
f 27 11 24
f 27 24 28
f 28 24 19
f 28 19 29
f 29 19 21
f 25 30 9
f 9 30 31
f 9 31 17
f 17 31 32
f 33 34 18
f 18 34 35
f 18 35 11
f 11 35 36
f 11 36 22
f 32 37 17
f 17 37 38
f 17 38 20
f 19 39 20
f 20 39 40
f 20 40 17
f 17 40 41
f 17 41 18
f 18 41 42
f 18 42 33
f 43 25 44
f 44 25 26
f 44 26 45
f 45 26 27
f 45 27 46
f 46 27 28
f 46 28 47
f 47 28 29
f 47 29 48
f 48 29 21
f 48 21 49
f 49 21 20
f 49 20 50
f 50 20 38
f 50 38 51
f 51 38 37
f 51 37 52
f 52 37 32
f 52 32 53
f 53 32 31
f 53 31 54
f 54 31 30
f 54 30 43
f 43 30 25
f 53 54 55
f 55 54 43
f 55 43 44
f 50 51 55
f 55 51 52
f 55 52 53
f 47 48 55
f 55 48 49
f 55 49 50
f 44 45 55
f 55 45 46
f 55 46 47
f 56 23 57
f 57 23 22
f 57 22 58
f 58 22 36
f 58 36 59
f 59 36 35
f 59 35 60
f 60 35 34
f 60 34 61
f 61 34 33
f 61 33 62
f 62 33 42
f 62 42 63
f 63 42 41
f 63 41 64
f 64 41 40
f 64 40 65
f 65 40 39
f 65 39 66
f 66 39 19
f 66 19 67
f 67 19 24
f 67 24 56
f 56 24 23
f 66 67 68
f 68 67 56
f 68 56 57
f 63 64 68
f 68 64 65
f 68 65 66
f 60 61 68
f 68 61 62
f 68 62 63
f 57 58 68
f 68 58 59
f 68 59 60
f 69 70 71
f 71 70 72
f 73 74 75
f 75 74 76
f 77 78 79
f 79 78 80
f 81 82 83
f 83 82 84
f 85 86 87
f 87 86 88
f 89 90 91
f 91 90 92
f 93 94 95
f 95 94 96
f 97 98 99
f 99 98 100
f 101 102 103
f 103 102 104
f 105 106 107
f 107 106 108
f 109 110 111
f 111 110 112
f 113 114 115
f 115 114 116
f 117 118 119
f 119 118 120
f 121 122 123
f 123 122 124
f 125 126 127
f 127 126 128
f 129 130 131
f 131 130 132
f 133 134 135
f 135 134 136
f 137 138 139
f 139 138 140
f 141 142 143
f 143 142 144
f 145 146 147
f 147 146 148
f 149 150 151
f 151 150 152
f 153 154 155
f 155 154 156
f 157 158 159
f 159 158 160
f 161 162 163
f 163 162 164
f 165 166 167
f 167 166 168
f 169 170 171
f 171 170 172
f 173 174 175
f 175 174 176
f 177 178 179
f 179 178 180
f 181 182 183
f 183 182 184
f 185 186 187
f 187 186 188
f 189 190 191
f 191 190 192
f 193 194 195
f 195 194 196
f 197 198 199
f 199 198 200
f 201 202 203
f 203 202 204
f 205 206 207
f 207 206 208
f 209 210 211
f 211 210 212
f 213 214 215
f 215 214 216
f 217 218 219
f 220 221 222
f 223 224 222
f 222 224 217
f 222 217 220
f 220 217 219
f 71 72 225
f 226 223 222
f 225 227 71
f 71 227 228
f 71 228 222
f 229 230 222
f 226 222 231
f 232 233 222
f 73 75 230
f 230 75 234
f 230 234 222
f 222 234 235
f 222 235 231
f 231 235 213
f 231 213 215
f 236 117 119
f 237 238 222
f 228 239 240
f 181 183 241
f 241 183 242
f 243 109 111
f 244 245 222
f 111 237 243
f 243 237 222
f 243 222 246
f 246 222 233
f 246 233 115
f 115 233 113
f 141 143 247
f 247 143 248
f 249 101 103
f 250 77 79
f 251 193 195
f 252 253 222
f 254 145 147
f 103 252 249
f 249 252 222
f 249 222 255
f 255 222 238
f 255 238 107
f 107 238 105
f 256 85 87
f 257 133 135
f 258 93 95
f 259 260 222
f 205 207 240
f 240 207 261
f 240 261 228
f 228 261 262
f 228 263 264
f 265 266 222
f 95 244 258
f 258 244 222
f 258 222 267
f 267 222 253
f 267 253 99
f 99 253 97
f 87 259 256
f 256 259 222
f 256 222 268
f 268 222 245
f 268 245 91
f 91 245 89
f 269 222 270
f 270 222 271
f 270 271 179
f 179 271 177
f 272 169 171
f 273 247 222
f 222 247 248
f 222 248 274
f 135 265 257
f 257 265 222
f 257 222 275
f 275 222 274
f 275 274 139
f 139 274 137
f 79 229 250
f 250 229 222
f 250 222 276
f 276 222 260
f 276 260 83
f 83 260 81
f 201 203 262
f 262 203 277
f 262 277 228
f 228 277 278
f 189 191 264
f 264 191 279
f 264 279 228
f 228 279 280
f 185 187 280
f 280 187 281
f 280 281 228
f 228 281 241
f 228 241 222
f 222 241 242
f 222 242 271
f 282 125 127
f 197 199 278
f 278 199 283
f 278 283 228
f 228 283 251
f 228 251 263
f 263 251 195
f 284 285 222
f 286 287 222
f 127 286 282
f 282 286 222
f 282 222 288
f 288 222 266
f 288 266 131
f 131 266 129
f 173 175 269
f 269 175 289
f 269 289 222
f 222 289 272
f 222 272 284
f 284 272 171
f 290 161 163
f 119 232 236
f 236 232 222
f 236 222 291
f 291 222 287
f 291 287 123
f 123 287 121
f 292 293 222
f 163 292 290
f 290 292 222
f 290 222 294
f 294 222 285
f 294 285 167
f 167 285 165
f 295 153 155
f 296 297 222
f 155 296 295
f 295 296 222
f 295 222 298
f 298 222 293
f 298 293 159
f 159 293 157
f 147 273 254
f 254 273 222
f 254 222 299
f 299 222 297
f 299 297 151
f 151 297 149
f 300 301 302
f 303 300 212
f 212 300 302
f 212 302 211
f 211 302 304
f 224 305 217
f 217 305 306
f 216 214 306
f 306 214 307
f 306 307 217
f 217 307 308
f 80 78 309
f 309 78 310
f 311 120 118
f 312 212 313
f 313 212 314
f 313 314 82
f 82 314 84
f 76 74 308
f 308 74 315
f 308 315 217
f 217 315 309
f 217 309 212
f 212 309 310
f 212 310 314
f 316 100 98
f 317 318 212
f 88 86 312
f 312 86 319
f 312 319 212
f 212 319 320
f 92 90 320
f 320 90 321
f 320 321 212
f 212 321 322
f 323 140 138
f 98 317 316
f 316 317 212
f 316 212 324
f 324 212 322
f 324 322 94
f 94 322 96
f 325 124 122
f 326 184 182
f 327 328 212
f 148 146 329
f 329 146 330
f 331 332 212
f 104 102 318
f 318 102 333
f 318 333 212
f 212 333 334
f 108 106 334
f 334 106 335
f 334 335 212
f 212 335 336
f 337 144 142
f 112 110 336
f 336 110 338
f 336 338 212
f 212 338 339
f 122 327 325
f 325 327 212
f 325 212 340
f 341 192 190
f 116 114 339
f 339 114 342
f 339 342 212
f 212 342 311
f 212 311 340
f 340 311 118
f 343 132 130
f 344 156 154
f 345 346 212
f 347 348 212
f 349 329 212
f 212 329 330
f 212 330 350
f 351 352 212
f 190 345 341
f 341 345 212
f 341 212 353
f 353 212 332
f 353 332 186
f 186 332 188
f 130 347 343
f 343 347 212
f 343 212 354
f 354 212 328
f 354 328 126
f 126 328 128
f 154 351 344
f 344 351 212
f 344 212 355
f 355 212 350
f 355 350 150
f 150 350 152
f 356 200 198
f 142 349 337
f 337 349 212
f 337 212 357
f 358 164 162
f 359 360 212
f 136 134 348
f 348 134 361
f 348 361 212
f 212 361 323
f 212 323 357
f 357 323 138
f 362 363 212
f 198 359 356
f 356 359 212
f 356 212 364
f 364 212 346
f 364 346 194
f 194 346 196
f 162 362 358
f 358 362 212
f 358 212 365
f 365 212 352
f 365 352 158
f 158 352 160
f 202 366 204
f 204 366 360
f 360 366 212
f 212 366 367
f 212 367 303
f 303 367 208
f 303 208 206
f 368 172 170
f 369 370 212
f 170 369 368
f 368 369 212
f 368 212 371
f 371 212 363
f 371 363 166
f 166 363 168
f 176 174 370
f 370 174 372
f 370 372 212
f 212 372 373
f 182 331 326
f 326 331 212
f 326 212 374
f 374 212 373
f 374 373 178
f 178 373 180
f 240 303 205
f 205 303 206
f 303 240 300
f 300 240 239
f 367 261 208
f 208 261 207
f 262 366 201
f 201 366 202
f 262 261 366
f 366 261 367
f 360 277 204
f 204 277 203
f 278 359 197
f 197 359 198
f 278 277 359
f 359 277 360
f 356 283 200
f 200 283 199
f 251 364 193
f 193 364 194
f 251 283 364
f 364 283 356
f 346 263 196
f 196 263 195
f 264 345 189
f 189 345 190
f 264 263 345
f 345 263 346
f 341 279 192
f 192 279 191
f 280 353 185
f 185 353 186
f 280 279 353
f 353 279 341
f 332 281 188
f 188 281 187
f 241 331 181
f 181 331 182
f 241 281 331
f 331 281 332
f 326 242 184
f 184 242 183
f 271 374 177
f 177 374 178
f 271 242 374
f 374 242 326
f 373 270 180
f 180 270 179
f 269 372 173
f 173 372 174
f 269 270 372
f 372 270 373
f 370 289 176
f 176 289 175
f 272 369 169
f 169 369 170
f 272 289 369
f 369 289 370
f 368 284 172
f 172 284 171
f 285 371 165
f 165 371 166
f 285 284 371
f 371 284 368
f 363 294 168
f 168 294 167
f 290 362 161
f 161 362 162
f 290 294 362
f 362 294 363
f 358 292 164
f 164 292 163
f 293 365 157
f 157 365 158
f 293 292 365
f 365 292 358
f 352 298 160
f 160 298 159
f 295 351 153
f 153 351 154
f 295 298 351
f 351 298 352
f 344 296 156
f 156 296 155
f 297 355 149
f 149 355 150
f 297 296 355
f 355 296 344
f 350 299 152
f 152 299 151
f 254 330 145
f 145 330 146
f 254 299 330
f 330 299 350
f 329 273 148
f 148 273 147
f 247 349 141
f 141 349 142
f 247 273 349
f 349 273 329
f 337 248 144
f 144 248 143
f 274 357 137
f 137 357 138
f 274 248 357
f 357 248 337
f 323 275 140
f 140 275 139
f 257 361 133
f 133 361 134
f 257 275 361
f 361 275 323
f 348 265 136
f 136 265 135
f 266 347 129
f 129 347 130
f 266 265 347
f 347 265 348
f 343 288 132
f 132 288 131
f 282 354 125
f 125 354 126
f 282 288 354
f 354 288 343
f 328 286 128
f 128 286 127
f 287 327 121
f 121 327 122
f 287 286 327
f 327 286 328
f 325 291 124
f 124 291 123
f 236 340 117
f 117 340 118
f 236 291 340
f 340 291 325
f 311 232 120
f 120 232 119
f 233 342 113
f 113 342 114
f 233 232 342
f 342 232 311
f 339 246 116
f 116 246 115
f 243 338 109
f 109 338 110
f 243 246 338
f 338 246 339
f 336 237 112
f 112 237 111
f 238 335 105
f 105 335 106
f 238 237 335
f 335 237 336
f 334 255 108
f 108 255 107
f 249 333 101
f 101 333 102
f 249 255 333
f 333 255 334
f 318 252 104
f 104 252 103
f 253 317 97
f 97 317 98
f 253 252 317
f 317 252 318
f 316 267 100
f 100 267 99
f 258 324 93
f 93 324 94
f 258 267 324
f 324 267 316
f 322 244 96
f 96 244 95
f 245 321 89
f 89 321 90
f 245 244 321
f 321 244 322
f 320 268 92
f 92 268 91
f 256 319 85
f 85 319 86
f 256 268 319
f 319 268 320
f 312 259 88
f 88 259 87
f 260 313 81
f 81 313 82
f 260 259 313
f 313 259 312
f 314 276 84
f 84 276 83
f 250 310 77
f 77 310 78
f 250 276 310
f 310 276 314
f 309 229 80
f 80 229 79
f 230 315 73
f 73 315 74
f 230 229 315
f 315 229 309
f 308 234 76
f 76 234 75
f 235 307 213
f 213 307 214
f 235 234 307
f 307 234 308
f 306 231 216
f 216 231 215
f 226 305 223
f 223 305 224
f 226 231 305
f 305 231 306
f 218 217 210
f 210 217 212
f 219 218 209
f 209 218 210
f 72 70 220
f 375 225 72
f 219 209 211
f 304 375 211
f 211 375 72
f 211 72 219
f 219 72 220
f 221 220 69
f 69 220 70
f 222 221 71
f 71 221 69
f 301 300 376
f 376 300 239
f 377 378 379
f 379 378 380
f 381 382 379
f 239 380 376
f 376 380 383
f 376 383 384
f 382 385 379
f 379 385 386
f 379 386 387
f 387 386 388
f 387 388 389
f 239 228 380
f 380 228 390
f 380 390 379
f 379 390 391
f 379 391 381
f 384 392 376
f 376 392 393
f 376 393 394
f 394 393 395
f 394 395 396
f 389 397 387
f 387 397 398
f 387 398 399
f 398 400 399
f 399 400 401
f 399 401 390
f 390 401 402
f 390 402 391
f 396 403 394
f 394 403 404
f 394 404 379
f 379 404 405
f 379 405 377
f 302 301 406
f 406 301 376
f 406 376 407
f 408 407 394
f 394 407 376
f 408 394 409
f 409 394 379
f 409 379 410
f 410 379 411
f 411 379 387
f 411 387 412
f 412 387 399
f 412 399 413
f 414 413 390
f 390 413 399
f 227 414 228
f 228 414 390
f 415 412 416
f 416 412 413
f 416 413 417
f 417 413 414
f 417 414 418
f 418 414 419
f 225 375 227
f 227 375 406
f 227 406 414
f 414 406 407
f 408 409 420
f 420 421 408
f 408 421 422
f 408 422 407
f 407 422 423
f 407 423 414
f 414 423 424
f 414 424 419
f 402 425 391
f 391 425 426
f 391 426 381
f 381 426 427
f 381 427 382
f 382 427 428
f 382 428 385
f 385 428 429
f 385 429 386
f 386 429 430
f 386 430 388
f 388 430 431
f 388 431 389
f 389 431 432
f 389 432 397
f 397 432 433
f 397 433 398
f 398 433 434
f 398 434 400
f 400 434 435
f 400 435 401
f 401 435 436
f 401 436 402
f 402 436 425
f 427 437 428
f 428 437 438
f 428 438 429
f 429 438 439
f 429 439 430
f 430 439 440
f 430 440 431
f 431 440 441
f 431 441 432
f 432 441 442
f 432 442 433
f 433 442 443
f 433 443 434
f 434 443 444
f 434 444 435
f 435 444 445
f 435 445 436
f 436 445 446
f 436 446 425
f 425 446 447
f 425 447 426
f 426 447 448
f 426 448 427
f 427 448 437
f 437 449 438
f 438 449 450
f 438 450 439
f 439 450 451
f 439 451 440
f 440 451 452
f 440 452 441
f 441 452 453
f 441 453 442
f 442 453 454
f 448 419 437
f 437 419 455
f 437 455 449
f 454 456 442
f 442 456 457
f 442 457 443
f 443 457 458
f 443 458 444
f 444 458 459
f 444 459 445
f 445 459 415
f 445 415 446
f 446 415 416
f 446 416 447
f 447 416 417
f 447 417 448
f 448 417 418
f 448 418 419
f 395 460 396
f 396 460 461
f 396 461 403
f 403 461 462
f 403 462 404
f 404 462 463
f 404 463 405
f 405 463 464
f 405 464 377
f 377 464 465
f 377 465 378
f 378 465 466
f 378 466 380
f 380 466 467
f 380 467 383
f 383 467 468
f 383 468 384
f 384 468 469
f 384 469 392
f 392 469 470
f 392 470 393
f 393 470 471
f 393 471 395
f 395 471 460
f 467 472 468
f 468 472 473
f 468 473 469
f 469 473 474
f 469 474 470
f 470 474 475
f 470 475 471
f 471 475 476
f 471 476 460
f 460 476 477
f 460 477 461
f 461 477 478
f 461 478 462
f 462 478 479
f 462 479 463
f 463 479 480
f 463 480 464
f 464 480 481
f 464 481 465
f 465 481 482
f 465 482 466
f 466 482 483
f 466 483 467
f 467 483 472
f 424 475 474
f 424 474 484
f 484 474 473
f 484 473 485
f 485 473 472
f 485 472 486
f 479 487 480
f 480 487 488
f 480 488 481
f 481 488 489
f 481 489 482
f 482 489 490
f 482 490 483
f 483 490 491
f 483 491 472
f 472 491 492
f 472 492 486
f 475 424 476
f 476 424 423
f 476 423 477
f 477 423 422
f 477 422 478
f 478 422 421
f 478 421 479
f 479 421 420
f 479 420 487
f 415 459 412
f 412 459 458
f 412 458 411
f 490 489 410
f 410 489 488
f 410 488 409
f 409 488 487
f 409 487 420
f 485 450 484
f 484 450 449
f 484 449 424
f 424 449 455
f 424 455 419
f 458 457 411
f 411 457 456
f 411 456 454
f 485 486 411
f 411 486 492
f 411 492 410
f 410 492 491
f 410 491 490
f 454 453 411
f 411 453 452
f 411 452 485
f 485 452 451
f 485 451 450
f 302 406 304
f 304 406 375

